<svg width="164" height="257" viewBox="0 0 164 257" fill="none" xmlns="http://www.w3.org/2000/svg">
<path d="M69.0415 129.919H64.0713C63.6545 129.917 63.2508 129.774 62.9262 129.512C62.6017 129.251 62.3756 128.887 62.285 128.48C62.2177 128.168 62.2329 127.844 62.3291 127.54C62.4252 127.235 62.599 126.962 62.8332 126.745L77.9889 112.792C78.2231 112.576 78.5333 112.46 78.8522 112.471L83.6637 112.637C83.8981 112.645 84.1251 112.722 84.3171 112.856C84.5092 112.991 84.6581 113.178 84.7458 113.396C84.8336 113.613 84.8564 113.852 84.8115 114.082C84.7666 114.312 84.656 114.525 84.493 114.693L70.2455 129.406C70.0889 129.567 69.9017 129.695 69.6948 129.783C69.488 129.871 69.2658 129.916 69.0412 129.916L69.0415 129.919Z" fill="#090814"/>
<path d="M68.7647 128.668C68.738 128.668 68.7114 128.666 68.685 128.663L63.9268 127.996C63.819 127.981 63.7177 127.936 63.6344 127.866C63.5511 127.796 63.4891 127.704 63.4556 127.6C63.4221 127.497 63.4184 127.386 63.445 127.28C63.4715 127.174 63.5272 127.078 63.6056 127.003L77.8232 113.339C77.9367 113.234 78.0861 113.177 78.2407 113.178L83.2543 113.322C83.3683 113.325 83.4789 113.362 83.5722 113.428C83.6656 113.493 83.7375 113.585 83.7791 113.691C83.8206 113.797 83.83 113.914 83.8059 114.025C83.7819 114.137 83.7255 114.239 83.6438 114.318L69.1712 128.505C69.0622 128.611 68.9163 128.67 68.7644 128.671L68.7647 128.668Z" fill="#F9A825"/>
<path d="M30.7587 250.363H36.8735L39.7819 226.776H30.7574L30.7587 250.363Z" fill="#ED9DA0"/>
<path d="M52.6083 150.53L49.1375 203.817L37.4844 241.326L25.8319 241.94L32.9882 196.241L31.0006 165.883C31.0006 165.883 21.5775 159.114 26.7876 150.966L52.6083 150.53Z" fill="#090814"/>
<path d="M26.7713 250.363H32.8829L35.7909 226.776H26.7684L26.7713 250.363Z" fill="#ED9DA0"/>
<path d="M29.2849 256.501H46.18C47.6325 256.498 49.066 256.171 50.3759 255.543L53.4911 254.043C53.8345 253.878 54.1194 253.613 54.3076 253.282C54.4958 252.95 54.5785 252.57 54.5445 252.19C54.5105 251.811 54.3615 251.451 54.1174 251.158C53.8734 250.866 53.5458 250.655 53.1786 250.554L46.7523 248.774L35.762 242.994L35.754 243.036C35.5481 244.078 35.2279 245.651 35.1884 245.744C34.0615 247.037 32.9025 247.631 31.7476 247.511C29.7307 247.305 28.3902 244.975 28.3754 244.951L28.3632 244.932H28.3433C28.1379 244.941 27.9373 244.997 27.7569 245.096C27.5764 245.195 27.4209 245.333 27.3021 245.501C26.8442 246.194 27.1242 247.266 27.1676 247.424C26.6177 247.962 26.3688 250.976 26.3489 251.218C25.5502 252.064 25.1745 252.875 25.222 253.631C25.2649 253.995 25.3844 254.346 25.5725 254.661C25.7607 254.976 26.0134 255.248 26.3139 255.458C27.1568 256.129 28.2032 256.491 29.2801 256.486L29.2849 256.501Z" fill="#090814"/>
<path d="M12.5222 73.3122C12.5229 71.2274 13.1012 69.1835 14.1929 67.4076C15.2846 65.6317 16.847 64.1931 18.7066 63.2516C20.5662 62.3102 22.6503 61.9026 24.7274 62.0743C26.8046 62.246 28.7936 62.9901 30.4735 64.224C32.1534 65.458 33.4586 67.1335 34.2441 69.0646C35.0297 70.9957 35.2648 73.1068 34.9234 75.1634C34.5821 77.2201 33.6776 79.1419 32.3103 80.7154C30.9431 82.289 29.1666 83.4527 27.1782 84.0775L24.9969 98.4908L13.882 89.2254C15.3977 87.2312 16.6388 85.0424 17.5721 82.7176C16.0183 81.6901 14.7437 80.293 13.8623 78.6516C12.981 77.0102 12.5206 75.1754 12.5222 73.3122Z" fill="#ED9DA0"/>
<path d="M48.6189 150.53L45.1481 203.817L33.5473 241.59L24.4686 241.954L29.0007 196.241L27.0131 165.883C27.0131 165.883 17.5897 159.114 22.8002 150.966L48.6189 150.53Z" fill="#090814"/>
<path d="M29.8049 159.095C40.2165 159.095 52.4686 152.732 53.1786 152.358L53.3762 152.254L29.4821 91.2811L17.6488 85.6888C16.7375 85.2587 15.7279 85.0796 14.7243 85.17C13.7206 85.2604 12.7593 85.6169 11.9394 86.2029C11.1195 86.7889 10.4707 87.5831 10.06 88.5035C9.64925 89.424 9.49147 90.4374 9.60289 91.4391L14.2988 133.578L19.2006 155.402L19.2527 155.454C21.9594 158.126 25.742 159.095 29.8049 159.095Z" fill="#F9A825"/>
<path d="M37.5383 61.7155C36.3425 60.4892 34.7889 59.6735 33.1006 59.3859C31.4553 59.0325 29.6498 58.9217 28.3334 57.8895C26.8374 56.6973 26.179 54.4319 24.344 53.9292C23.5457 53.7687 22.7185 53.8343 21.9555 54.1187C19.0233 55.0034 16.42 56.7395 14.4758 59.1067C14.0175 59.785 13.4335 60.3692 12.7554 60.8276C12.3493 60.9992 11.9527 61.1922 11.5671 61.4058C11.1446 61.7393 10.8121 62.1731 10.5997 62.6677C9.2767 65.3393 8.97177 68.4014 9.74195 71.2816C10.1999 72.9826 11.0285 74.5583 11.5173 76.2696C12.0061 77.9809 14.2661 81.2351 14.7931 80.4271C15.3201 79.6192 16.0006 78.8659 16.289 77.933C16.8533 76.1 16.3436 74.2522 17.7786 72.9758C18.6659 72.1875 20.272 71.6587 20.8755 72.6768C21.115 73.0709 21.1003 73.5695 21.3045 73.9785C21.7085 74.7767 22.8753 74.9364 23.649 74.4783C24.3939 73.964 24.9175 73.1874 25.115 72.3038C26.277 68.3734 28.2563 65.8994 32.4602 67.5815C34.0262 68.2102 35.8709 68.6339 37.3768 67.5564C39.3631 66.1394 38.9591 63.3314 37.5383 61.7155Z" fill="#090814"/>
<path d="M68.484 125.717C67.8649 125.324 67.1672 125.072 66.4402 124.978C65.7131 124.885 64.9743 124.951 64.2758 125.174C63.5774 125.397 62.9362 125.77 62.3975 126.267C61.8589 126.765 61.4358 127.374 61.1581 128.053L43.366 127.08L48.0344 135.079L64.2152 134.776C65.3854 135.166 66.6577 135.112 67.7914 134.627C68.9251 134.141 69.8415 133.257 70.3674 132.141C70.8933 131.025 70.9921 129.755 70.6451 128.572C70.2982 127.388 69.5289 126.372 68.484 125.717Z" fill="#ED9DA0"/>
<path d="M33.3701 138.238L51.2006 137.783L50.9707 125.985L42.5391 123.301L28.7088 103.897C28.0175 102.923 27.1377 102.097 26.1214 101.469C25.1052 100.841 23.9733 100.424 22.7927 100.242C21.6122 100.059 20.407 100.116 19.2488 100.408C18.0906 100.701 17.0029 101.223 16.0501 101.943C15.0973 102.664 14.2989 103.569 13.7022 104.604C13.1055 105.639 12.7227 106.783 12.5764 107.969C12.4301 109.155 12.5234 110.358 12.8507 111.508C13.1779 112.657 13.7325 113.728 14.4816 114.659L33.3701 138.238Z" fill="#F9A825"/>
<path d="M0.200723 256.999H76.7001C76.8109 256.999 76.9008 256.774 76.9008 256.499C76.9008 256.224 76.8109 256 76.7001 256H0.200723C0.0899237 256 0 256.224 0 256.499C0 256.774 0.0908872 256.999 0.200723 256.999Z" fill="#E6E6E6"/>
<path d="M144.784 0.363652C147.997 0.363652 151.137 1.31649 153.808 3.10166C156.479 4.88683 158.56 7.42417 159.79 10.3928C161.019 13.3614 161.341 16.628 160.714 19.7795C160.087 22.931 158.54 25.8258 156.269 28.0979C153.998 30.37 151.103 31.9174 147.953 32.5442C144.802 33.1711 141.537 32.8494 138.569 31.6197C135.601 30.3901 133.064 28.3077 131.28 25.636C129.495 22.9643 128.542 19.8233 128.542 16.61C128.542 12.3012 130.254 8.16889 133.3 5.1221C136.345 2.07532 140.477 0.363652 144.784 0.363652Z" fill="#E6E6E6"/>
<path d="M144.79 2.82051e-06C148.919 0.00288912 152.899 1.53974 155.958 4.31231C159.017 7.08488 160.938 10.8955 161.347 15.0046C161.756 19.1137 160.625 23.2283 158.172 26.5499C155.719 29.8716 152.12 32.1634 148.074 32.9806C144.027 33.7978 139.821 33.0822 136.272 30.9725C132.724 28.8629 130.085 25.5097 128.868 21.5637C127.651 17.6177 127.943 13.3602 129.688 9.61756C131.432 5.87487 134.504 2.91384 138.308 1.30908C140.36 0.443834 142.564 -0.00129287 144.79 2.82051e-06ZM144.79 32.5637C148.731 32.5598 152.53 31.0916 155.449 28.4442C158.369 25.7968 160.201 22.1588 160.591 18.2363C160.98 14.3138 159.899 10.3865 157.557 7.21641C155.215 4.04633 151.779 1.85957 147.916 1.08046C144.053 0.301363 140.038 0.985482 136.651 3.00007C133.264 5.01466 130.746 8.21605 129.585 11.983C128.425 15.75 128.705 19.8139 130.37 23.3862C132.036 26.9584 134.969 29.7843 138.601 31.3154C140.56 32.141 142.665 32.5655 144.79 32.5637Z" fill="#090814"/>
<path d="M157.256 24.8522C159.023 24.8312 160.726 25.5132 161.991 26.7482C163.256 27.9831 163.978 29.67 164 31.4378C163.978 33.2056 163.256 34.8924 161.991 36.1274C160.726 37.3624 159.023 38.0443 157.256 38.0233C155.488 38.0443 153.785 37.3624 152.52 36.1274C151.256 34.8924 150.533 33.2056 150.511 31.4378C150.533 29.67 151.256 27.9831 152.52 26.7482C153.785 25.5132 155.488 24.8312 157.256 24.8522Z" fill="#3F3D56"/>
<path d="M157.256 24.8522C159.023 24.8312 160.726 25.5132 161.991 26.7482C163.256 27.9831 163.978 29.67 164 31.4378C163.978 33.2056 163.256 34.8924 161.991 36.1274C160.726 37.3624 159.023 38.0443 157.256 38.0233C155.488 38.0443 153.785 37.3624 152.52 36.1274C151.256 34.8924 150.533 33.2056 150.511 31.4378C150.533 29.67 151.256 27.9831 152.52 26.7482C153.785 25.5132 155.488 24.8312 157.256 24.8522Z" fill="#F9A825"/>
<path d="M157.301 28.9818C157.796 28.9818 158.279 29.1284 158.69 29.4031C159.101 29.6778 159.421 30.0682 159.61 30.5249C159.799 30.9816 159.849 31.4842 159.752 31.9691C159.656 32.454 159.418 32.8994 159.068 33.249C158.719 33.5985 158.274 33.8366 157.789 33.9331C157.304 34.0295 156.802 33.98 156.345 33.7908C155.888 33.6016 155.498 33.2812 155.224 32.8702C154.949 32.4591 154.802 31.9758 154.802 31.4815C154.802 30.8185 155.066 30.1827 155.534 29.714C156.003 29.2452 156.639 28.9818 157.301 28.9818Z" fill="white"/>
<path d="M122.295 89.7327C131.265 89.7327 138.537 82.4589 138.537 73.4863C138.537 64.5137 131.265 57.2399 122.295 57.2399C113.325 57.2399 106.053 64.5137 106.053 73.4863C106.053 82.4589 113.325 89.7327 122.295 89.7327Z" fill="#E6E6E6"/>
<path d="M122.301 56.8763C126.43 56.8792 130.41 58.416 133.469 61.1886C136.528 63.9612 138.449 67.7717 138.858 71.8809C139.267 75.99 138.136 80.1046 135.683 83.4262C133.23 86.7479 129.632 89.0397 125.585 89.8569C121.538 90.6741 117.332 89.9585 113.783 87.8488C110.235 85.7392 107.596 82.386 106.379 78.44C105.162 74.494 105.454 70.2365 107.199 66.4939C108.943 62.7512 112.015 59.7901 115.819 58.1854C117.871 57.3201 120.075 56.875 122.301 56.8763ZM122.301 89.44C126.242 89.4361 130.041 87.9679 132.96 85.3205C135.88 82.6731 137.712 79.0351 138.102 75.1126C138.491 71.1901 137.41 67.2628 135.068 64.0927C132.726 60.9226 129.29 58.7359 125.427 57.9568C121.564 57.1777 117.549 57.8618 114.162 59.8764C110.775 61.8909 108.257 65.0923 107.096 68.8593C105.936 72.6263 106.216 76.6902 107.881 80.2624C109.547 83.8347 112.48 86.6606 116.112 88.1917C118.071 89.0173 120.176 89.4418 122.301 89.44Z" fill="#090814"/>
<path d="M134.789 81.5727C136.107 81.5727 137.395 81.9636 138.491 82.696C139.587 83.4284 140.441 84.4693 140.945 85.6873C141.45 86.9052 141.582 88.2453 141.325 89.5382C141.067 90.8312 140.433 92.0188 139.501 92.9509C138.569 93.8831 137.382 94.5179 136.089 94.7751C134.797 95.0322 133.457 94.9002 132.239 94.3958C131.022 93.8913 129.981 93.037 129.249 91.9409C128.517 90.8448 128.126 89.5562 128.126 88.2379C128.126 86.4702 128.828 84.7749 130.078 83.5249C131.327 82.2749 133.022 81.5727 134.789 81.5727Z" fill="#3F3D56"/>
<path d="M134.789 81.5727C136.107 81.5727 137.395 81.9636 138.491 82.696C139.587 83.4284 140.441 84.4693 140.945 85.6873C141.45 86.9052 141.582 88.2453 141.325 89.5382C141.067 90.8312 140.433 92.0188 139.501 92.9509C138.569 93.8831 137.382 94.5179 136.089 94.7751C134.797 95.0322 133.457 94.9002 132.239 94.3958C131.022 93.8913 129.981 93.037 129.249 91.9409C128.517 90.8448 128.126 89.5562 128.126 88.2379C128.126 86.4702 128.828 84.7749 130.078 83.5249C131.327 82.2749 133.022 81.5727 134.789 81.5727Z" fill="#F9A825"/>
<path d="M134.79 85.9339C135.284 85.9339 135.767 86.0806 136.178 86.3552C136.589 86.6299 136.909 87.0203 137.098 87.477C137.287 87.9337 137.337 88.4363 137.24 88.9212C137.144 89.4061 136.906 89.8515 136.557 90.2011C136.207 90.5506 135.762 90.7887 135.277 90.8851C134.792 90.9816 134.29 90.9321 133.833 90.7429C133.377 90.5537 132.986 90.2333 132.712 89.8223C132.437 89.4112 132.291 88.9279 132.291 88.4336C132.291 87.7706 132.554 87.1348 133.023 86.6661C133.491 86.1973 134.127 85.9339 134.79 85.9339Z" fill="white"/>
<path d="M69.7985 46.1868C78.7686 46.1868 86.0403 38.9131 86.0403 29.9405C86.0403 20.9678 78.7686 13.6941 69.7985 13.6941C60.8284 13.6941 53.5567 20.9678 53.5567 29.9405C53.5567 38.9131 60.8284 46.1868 69.7985 46.1868Z" fill="#E6E6E6"/>
<path d="M69.8046 13.3304C73.9329 13.3333 77.9129 14.8702 80.9723 17.6427C84.0316 20.4153 85.9522 24.2259 86.3613 28.335C86.7704 32.4441 85.6388 36.5587 83.1862 39.8804C80.7335 43.202 77.1347 45.4938 73.088 46.311C69.0414 47.1282 64.8356 46.4126 61.2867 44.3029C57.7378 42.1933 55.0989 38.8401 53.8822 34.8941C52.6655 30.9481 52.9576 26.6907 54.702 22.948C56.4464 19.2053 59.5186 16.2443 63.3224 14.6395C65.3739 13.7743 67.5781 13.3291 69.8046 13.3304ZM69.8046 45.8942C73.7453 45.8902 77.544 44.4221 80.4636 41.7746C83.3832 39.1272 85.2155 35.4893 85.6049 31.5668C85.9943 27.6443 84.913 23.7169 82.571 20.5468C80.2289 17.3768 76.7931 15.19 72.9301 14.4109C69.0672 13.6318 65.0526 14.3159 61.6655 16.3305C58.2783 18.3451 55.7601 21.5465 54.5996 25.3134C53.439 29.0804 53.7188 33.1443 55.3846 36.7166C57.0505 40.2888 59.9837 43.1147 63.6149 44.6458C65.5739 45.4714 67.6788 45.8959 69.8046 45.8942Z" fill="#090814"/>
<path d="M82.2921 38.0278C83.61 38.0278 84.8983 38.4187 85.994 39.1511C87.0898 39.8835 87.9439 40.9245 88.4482 42.1424C88.9526 43.3603 89.0845 44.7004 88.8274 45.9933C88.5703 47.2863 87.9357 48.4739 87.0038 49.406C86.0719 50.3382 84.8846 50.973 83.592 51.2302C82.2995 51.4874 80.9597 51.3554 79.7421 50.8509C78.5246 50.3464 77.4839 49.4921 76.7517 48.396C76.0195 47.2999 75.6287 46.0113 75.6287 44.693C75.6287 42.9253 76.3308 41.23 77.5804 39.98C78.83 38.73 80.5249 38.0278 82.2921 38.0278Z" fill="#3F3D56"/>
<path d="M82.2921 38.0278C83.61 38.0278 84.8983 38.4187 85.994 39.1511C87.0898 39.8835 87.9439 40.9245 88.4482 42.1424C88.9526 43.3603 89.0845 44.7004 88.8274 45.9933C88.5703 47.2863 87.9357 48.4739 87.0038 49.406C86.0719 50.3382 84.8846 50.973 83.592 51.2302C82.2995 51.4874 80.9597 51.3554 79.7421 50.8509C78.5246 50.3464 77.4839 49.4921 76.7517 48.396C76.0195 47.2999 75.6287 46.0113 75.6287 44.693C75.6287 42.9253 76.3308 41.23 77.5804 39.98C78.83 38.73 80.5249 38.0278 82.2921 38.0278Z" fill="#F9A825"/>
<path d="M82.2658 42.1995C82.9256 42.2215 83.5499 42.5044 84.0014 42.9862C84.453 43.468 84.695 44.1094 84.6744 44.7695C84.695 45.4296 84.453 46.0709 84.0014 46.5527C83.5499 47.0345 82.9256 47.3175 82.2658 47.3395C81.6059 47.3175 80.9817 47.0345 80.5301 46.5527C80.0785 46.0709 79.8365 45.4296 79.8571 44.7695C79.8365 44.1094 80.0785 43.468 80.5301 42.9862C80.9817 42.5044 81.6059 42.2215 82.2658 42.1995Z" fill="white"/>
<path d="M76.2381 35.9296C76.2381 34.933 75.5633 34.0682 74.596 33.7498C74.3443 33.6672 74.0729 33.6225 73.7894 33.6225C73.4999 33.6225 73.2231 33.6691 72.9675 33.755C72.7681 33.822 72.5519 33.7146 72.4849 33.5151C72.418 33.3157 72.5253 33.0998 72.7247 33.0327C73.0588 32.9205 73.4177 32.8606 73.7894 32.8606C73.9275 32.8606 74.0639 32.8688 74.1979 32.8849C73.854 32.0151 72.9655 31.381 71.9028 31.381C70.5313 31.381 69.4541 32.4323 69.4541 33.6887C69.4543 33.8964 69.4839 34.1025 69.5414 34.3013C69.7848 34.3696 70.0133 34.4722 70.2202 34.6039C70.3977 34.7169 70.45 34.9525 70.3371 35.13C70.2241 35.3074 69.9885 35.3597 69.811 35.2468C69.6233 35.1273 69.4095 35.0411 69.1796 34.9983C69.1792 34.9982 69.1787 34.9983 69.1783 34.9983C69.0653 34.9774 68.9507 34.9668 68.8358 34.9665C67.8567 34.9667 67.0953 35.7163 67.0952 36.6022C67.0952 37.4882 67.8562 38.2381 68.8371 38.2381H73.7894C75.1602 38.238 76.2381 37.1868 76.2381 35.9296ZM76.2381 31.2689C76.238 29.5557 75.1242 28.095 73.5662 27.5625C73.1579 27.4234 72.721 27.3475 72.2656 27.3475C71.8141 27.3473 71.3655 27.4228 70.939 27.5709C70.7403 27.6399 70.5231 27.5348 70.4541 27.3361C70.3851 27.1373 70.4905 26.9202 70.6892 26.8512C71.1962 26.6752 71.729 26.5854 72.2656 26.5856L72.3668 26.5866C72.6525 26.5925 72.9319 26.6238 73.2034 26.6778C72.7536 25.0019 71.2074 23.7619 69.3626 23.7619C67.1642 23.7619 65.3901 25.5217 65.3894 27.6835C65.3892 28.081 65.4501 28.4758 65.5694 28.8542C65.96 28.9554 66.3317 29.1204 66.6691 29.3435C66.8446 29.4596 66.8928 29.696 66.7768 29.8715C66.6607 30.0469 66.4245 30.0951 66.249 29.9792C65.9325 29.7699 65.5778 29.6249 65.2054 29.5523L65.1939 29.5501C65.0177 29.5163 64.8351 29.4987 64.6458 29.4983C63.0489 29.4986 61.7619 30.7774 61.7619 32.3447C61.7619 33.9122 63.05 35.1905 64.6458 35.1905C64.8562 35.1905 65.0268 35.3611 65.0268 35.5714C65.0268 35.7818 64.8562 35.9523 64.6458 35.9524C62.6379 35.9524 61 34.3415 61 32.3447C61 30.3481 62.637 28.7364 64.6466 28.7364C64.6803 28.7364 64.7147 28.7369 64.7483 28.7379C64.668 28.3927 64.6273 28.0389 64.6275 27.6833L64.629 27.5623C64.6947 25.0276 66.7927 23 69.3626 23C71.7134 23 73.6673 24.6959 74.0352 26.9246C75.7708 27.617 77 29.2986 77 31.2689C77 31.4792 76.8294 31.6498 76.619 31.6498C76.4086 31.6498 76.2381 31.4792 76.2381 31.2689ZM77 35.9296C77 37.6437 75.5439 39 73.7894 39H68.8371C67.4728 39 66.3333 37.9455 66.3333 36.6022C66.3334 35.2912 67.4193 34.2559 68.7383 34.2068C68.708 34.0363 68.6923 33.863 68.6922 33.689C68.6922 31.9756 70.1475 30.6191 71.9028 30.6191C73.4536 30.6191 74.7692 31.6775 75.0551 33.1076C76.1904 33.5743 77 34.6546 77 35.9296Z" fill="#090814"/>
<path d="M147.048 16.134C147.048 15.869 147.256 15.6543 147.512 15.6543C147.768 15.6543 147.976 15.869 147.976 16.134V21.123C148.467 21.1479 148.977 21.3295 149.736 21.5918C150.333 21.7973 150.741 21.9376 151.057 22.0059C151.329 22.0647 151.473 22.0558 151.566 22.0243L151.603 22.0093C151.702 21.9632 151.791 21.8966 151.864 21.8135L151.865 21.8122C151.933 21.7359 151.998 21.603 152.034 21.277C152.072 20.9456 152.072 20.4999 152.072 19.8497V16.134C152.072 15.869 152.28 15.6543 152.536 15.6543C152.792 15.6543 153 15.869 153 16.134V19.8497C153 20.4761 153.001 20.988 152.956 21.3878C152.91 21.7928 152.811 22.1651 152.549 22.4603C152.39 22.6411 152.196 22.7857 151.98 22.8856L151.979 22.8866C151.626 23.0487 151.253 23.0284 150.867 22.945C150.486 22.8626 150.017 22.7001 149.443 22.5021C148.516 22.1824 148.163 22.0675 147.814 22.0802H147.813C147.678 22.0848 147.543 22.1035 147.412 22.1355C147.072 22.2194 146.759 22.4266 145.947 22.9852L144.79 23.7841C143.824 24.4503 143.22 24.8812 142.512 24.9784C141.804 25.0772 141.111 24.8265 140.01 24.4465L139.035 24.1105C138.63 23.9711 138.29 23.8542 138.023 23.726C137.746 23.5926 137.506 23.4274 137.324 23.1664C137.152 22.9195 137.076 22.6486 137.039 22.3535C137.003 22.0699 137 21.7291 137 21.3313C137 21.0664 137.207 20.8513 137.463 20.851C137.719 20.8507 137.927 21.0652 137.928 21.33C137.928 21.7428 137.932 22.0189 137.958 22.2298C137.98 22.4041 138.015 22.5036 138.058 22.5761L138.077 22.6058C138.132 22.6851 138.218 22.7617 138.415 22.8563C138.622 22.956 138.903 23.0537 139.328 23.2001L140.303 23.5361C141.18 23.8386 141.656 23.9959 142.024 24.0327V21.3307C142.024 21.0657 142.232 20.851 142.488 20.851C142.744 20.851 142.952 21.0657 142.952 21.3307V23.8375C143.261 23.6795 143.654 23.4141 144.275 22.9859L145.433 22.1876C146.117 21.7165 146.568 21.399 147.048 21.2448V16.134ZM147.048 12.6696V10.1621C146.738 10.3201 146.345 10.5858 145.724 11.0134L144.567 11.8117C143.884 12.2831 143.432 12.6005 142.952 12.7542V17.8663C142.952 18.1312 142.744 18.346 142.488 18.346C142.232 18.346 142.024 18.1312 142.024 17.8663V12.8773C141.533 12.8517 141.024 12.6706 140.264 12.4082C139.667 12.2027 139.259 12.0626 138.943 11.9944C138.671 11.9357 138.528 11.945 138.435 11.9766L138.398 11.9913C138.298 12.037 138.209 12.1032 138.135 12.1861C138.067 12.2637 138.002 12.3978 137.966 12.7236C137.928 13.055 137.928 13.5003 137.928 14.1505V17.6714C137.927 17.9363 137.72 18.1511 137.464 18.1511C137.208 18.1511 137 17.9363 137 17.6714V14.1505C137 13.5242 136.999 13.0126 137.044 12.6127C137.09 12.2075 137.189 11.8357 137.45 11.54C137.59 11.382 137.756 11.2511 137.941 11.1543L138.021 11.1146C138.374 10.9518 138.747 10.9719 139.133 11.0553C139.418 11.117 139.754 11.2238 140.146 11.357L140.557 11.4981L141.154 11.7008C141.659 11.8671 141.924 11.9294 142.185 11.9207C142.32 11.9156 142.455 11.8966 142.586 11.8642L142.588 11.8638C142.928 11.7809 143.24 11.5738 144.053 11.0134L145.21 10.2149C146.177 9.54875 146.781 9.11912 147.488 9.02127C148.197 8.92252 148.889 9.17379 149.99 9.55375L150.966 9.88979C151.37 10.0292 151.71 10.1457 151.977 10.2739C152.254 10.4074 152.494 10.5725 152.676 10.8336C152.857 11.0945 152.933 11.3823 152.967 11.6965C153.001 11.9984 153 12.3692 153 12.8098C153 13.0747 152.792 13.2895 152.536 13.2895C152.28 13.2895 152.072 13.0747 152.072 12.8098C152.072 12.3471 152.072 12.0402 152.046 11.8051C152.021 11.5823 151.978 11.4736 151.923 11.3941C151.868 11.3149 151.782 11.2382 151.585 11.1437C151.378 11.0439 151.097 10.9462 150.672 10.7998L149.697 10.4638C148.82 10.1612 148.344 10.0037 147.976 9.96692V12.6696C147.976 12.9345 147.768 13.1493 147.512 13.1493C147.256 13.1493 147.048 12.9345 147.048 12.6696Z" fill="#091015"/>
<path d="M117.268 77.7426V75.4956C117.269 75.0761 117.598 74.7359 118.005 74.7359C118.412 74.7359 118.742 75.0761 118.742 75.4956V77.7426C118.742 78.1148 118.744 78.3189 118.762 78.4603C118.899 78.479 119.097 78.4806 119.458 78.4806C119.819 78.4806 120.017 78.4789 120.154 78.4603C120.172 78.3189 120.174 78.1148 120.174 77.7426V75.4956C120.174 75.0761 120.504 74.7359 120.911 74.7359C121.317 74.736 121.647 75.0762 121.647 75.4956V77.7426C121.647 78.0742 121.649 78.3992 121.614 78.6655C121.576 78.9539 121.485 79.284 121.219 79.5583C120.953 79.8325 120.632 79.9271 120.353 79.9659C120.095 80.0017 119.779 80 119.458 80C119.136 80 118.821 80.0017 118.563 79.9659C118.283 79.9271 117.963 79.8326 117.697 79.5583C117.431 79.284 117.339 78.9538 117.302 78.6655C117.267 78.3992 117.268 78.0742 117.268 77.7426ZM125.311 75.2137C125.462 74.8242 125.89 74.6346 126.268 74.7903C126.646 74.9461 126.83 75.3884 126.679 75.778L125.226 79.5227C125.114 79.8111 124.843 80 124.542 80C124.241 79.9999 123.97 79.811 123.858 79.5227L122.405 75.778C122.254 75.3884 122.438 74.9461 122.816 74.7903C123.194 74.6346 123.622 74.8242 123.773 75.2137L124.542 77.1946L125.311 75.2137ZM115.826 72.4894C116.233 72.4894 116.563 72.8295 116.563 73.2491C116.563 73.6686 116.233 74.0088 115.826 74.0088H114.737C114.33 74.0088 114 73.6686 114 73.2491C114 72.8295 114.33 72.4894 114.737 72.4894H115.826ZM124.895 73.2491C124.895 72.4574 124.59 71.6979 124.047 71.1381C123.504 70.5784 122.768 70.2641 122 70.2641C121.232 70.2641 120.496 70.5783 119.953 71.1381C119.41 71.6979 119.105 72.4574 119.105 73.2491C119.105 73.6686 118.775 74.0088 118.368 74.0088C117.962 74.0088 117.632 73.6686 117.632 73.2491C117.632 72.0545 118.092 70.9085 118.911 70.0638C119.73 69.2191 120.841 68.7447 122 68.7447C123.158 68.7447 124.269 69.2192 125.089 70.0638C125.908 70.9085 126.368 72.0545 126.368 73.2491C126.368 73.6686 126.038 74.0087 125.632 74.0088C125.225 74.0088 124.895 73.6686 124.895 73.2491ZM129.263 72.4894C129.67 72.4895 130 72.8296 130 73.2491C130 73.6686 129.67 74.0087 129.263 74.0088H128.173C127.767 74.0087 127.437 73.6686 127.437 73.2491C127.437 72.8296 127.767 72.4895 128.173 72.4894H129.263ZM116.343 67.4157C116.631 67.1193 117.097 67.1195 117.385 67.4162L118.154 68.211C118.442 68.5078 118.442 68.9887 118.154 69.2853C117.866 69.5818 117.4 69.5816 117.112 69.2848L116.342 68.4905C116.055 68.1936 116.055 67.7122 116.343 67.4157ZM126.614 67.4162C126.902 67.1195 127.368 67.1195 127.656 67.4162C127.944 67.7129 127.944 68.1938 127.656 68.4905L126.886 69.2843C126.598 69.581 126.132 69.581 125.844 69.2843C125.556 68.9876 125.556 68.5067 125.844 68.21L126.614 67.4162ZM121.263 66.883V65.7597C121.263 65.3401 121.593 65 122 65C122.407 65.0001 122.737 65.3402 122.737 65.7597V66.883C122.737 67.3025 122.407 67.6426 122 67.6427C121.593 67.6427 121.263 67.3026 121.263 66.883Z" fill="#091015"/>
</svg>
