<svg width="455" height="211" viewBox="0 0 455 211" fill="none" xmlns="http://www.w3.org/2000/svg">
<path d="M429.156 209.471C425.304 209.312 421.793 207.758 420.206 205.352C420.131 205.239 420.061 205.125 419.996 205.009C419.416 203.984 419.235 202.805 419.869 201.795C420.503 200.785 422.086 200.018 423.676 200.177C425.266 200.336 426.508 201.603 425.85 202.606C425.703 200.579 425.582 198.45 427.218 196.686C428.118 195.764 429.293 195.158 430.567 194.957C433.862 194.378 436.051 196.24 436.489 198.12C436.812 199.507 436.366 200.919 435.921 202.29C437.292 200.671 440.552 199.951 443.049 200.715C445.545 201.48 446.931 203.623 446.077 205.401C445.072 207.495 441.722 208.578 438.611 209.15C436.041 209.622 432.188 209.597 429.156 209.471Z" fill="#1A3346" fill-opacity="0.3"/>
<path d="M295.018 209.471C291.165 209.312 287.655 207.758 286.067 205.352C285.993 205.239 285.923 205.125 285.857 205.009C285.277 203.984 285.096 202.805 285.73 201.795C286.364 200.785 287.948 200.018 289.538 200.177C291.128 200.336 292.369 201.603 291.711 202.606C291.564 200.579 291.444 198.45 293.08 196.686C293.98 195.764 295.155 195.158 296.428 194.957C299.724 194.378 301.912 196.24 302.351 198.12C302.674 199.507 302.227 200.919 301.783 202.29C303.153 200.671 306.414 199.951 308.91 200.715C311.407 201.48 312.792 203.623 311.939 205.401C310.934 207.495 307.584 208.578 304.472 209.15C301.903 209.622 298.049 209.597 295.018 209.471Z" fill="#1A3346" fill-opacity="0.3"/>
<path d="M171.577 88.7055H143.946C141.748 88.703 139.641 87.8298 138.087 86.2774C136.533 84.725 135.659 82.6202 135.656 80.4247V28.7327C135.659 26.5373 136.533 24.4325 138.087 22.8801C139.641 21.3277 141.748 20.4544 143.946 20.452H171.577C173.775 20.4544 175.882 21.3277 177.436 22.8801C178.99 24.4325 179.864 26.5373 179.867 28.7327V80.4247C179.864 82.6202 178.99 84.725 177.436 86.2774C175.882 87.8298 173.775 88.703 171.577 88.7055Z" fill="#1A3346" fill-opacity="0.3"/>
<path d="M341.288 203.972H335.129L332.199 180.24L341.289 180.241L341.288 203.972Z" fill="#FFB8B8"/>
<path d="M342.859 209.937L322.999 209.936V209.685C322.999 208.671 323.199 207.667 323.588 206.73C323.976 205.793 324.546 204.942 325.263 204.225C325.981 203.508 326.833 202.939 327.771 202.551C328.709 202.163 329.714 201.963 330.729 201.963L342.859 201.964L342.859 209.937Z" fill="#2F2E41"/>
<path d="M410.094 198.216L404.288 200.269L393.594 178.876L402.163 175.845L410.094 198.216Z" fill="#FFB8B8"/>
<path d="M413.567 203.314L394.847 209.937L394.763 209.7C394.424 208.744 394.277 207.731 394.33 206.718C394.383 205.706 394.635 204.713 395.072 203.798C395.509 202.883 396.122 202.062 396.877 201.384C397.631 200.705 398.512 200.182 399.469 199.843L410.903 195.798L413.567 203.314Z" fill="#2F2E41"/>
<path d="M341.117 196.004C340.979 196.004 340.841 195.992 340.705 195.967L333.173 194.599C332.66 194.504 332.196 194.236 331.857 193.84C331.519 193.444 331.328 192.943 331.315 192.422C330.22 141.777 335.603 107.744 347.313 83.3493C347.521 82.9177 347.863 82.5639 348.287 82.3398C348.711 82.1158 349.195 82.0331 349.67 82.104L376.755 86.0101C377.249 86.0819 377.706 86.3152 378.054 86.6735C378.402 87.0318 378.621 87.4951 378.678 87.991L381.066 109.021C381.079 109.134 381.103 109.246 381.137 109.355L407.105 187.078C407.283 187.644 407.231 188.256 406.962 188.784C406.693 189.313 406.228 189.715 405.666 189.904L398.648 192.241C398.131 192.411 397.571 192.389 397.069 192.182C396.567 191.974 396.156 191.593 395.911 191.108L360.785 124.944C360.715 124.805 360.604 124.691 360.466 124.617C360.329 124.544 360.172 124.515 360.017 124.534C359.863 124.553 359.718 124.62 359.603 124.725C359.488 124.83 359.408 124.968 359.374 125.12L343.317 194.229C343.209 194.732 342.931 195.182 342.531 195.505C342.13 195.828 341.631 196.004 341.117 196.004Z" fill="#2F2E41"/>
<path d="M319.711 42.3319C319.773 42.6027 319.813 42.8779 319.831 43.155L341.413 55.5922L346.658 52.5755L352.251 59.8888L343.484 66.1308C342.775 66.6351 341.923 66.8962 341.053 66.875C340.184 66.8539 339.344 66.5516 338.662 66.0134L316.408 48.4754C315.403 48.8467 314.309 48.9039 313.272 48.6392C312.234 48.3745 311.302 47.8004 310.599 46.9935C309.896 46.1865 309.455 45.1848 309.336 44.1217C309.217 43.0586 309.424 41.9843 309.931 41.0419C310.438 40.0995 311.22 39.3335 312.173 38.8459C313.126 38.3582 314.205 38.172 315.267 38.3121C316.329 38.4521 317.323 38.9118 318.116 39.6298C318.91 40.3479 319.466 41.2903 319.711 42.3319Z" fill="#FFB8B8"/>
<path d="M341.709 54.349C341.774 54.031 341.907 53.7308 342.099 53.4688C342.29 53.2068 342.537 52.9892 342.82 52.8309L352.724 47.2989C354.04 46.2842 355.705 45.8321 357.353 46.0419C359.002 46.2516 360.501 47.106 361.52 48.4177C362.539 49.7294 362.996 51.3914 362.791 53.0392C362.585 54.687 361.734 56.1861 360.424 57.2078L352.528 65.3988C352.302 65.6326 352.029 65.8151 351.727 65.9339C351.424 66.0527 351.1 66.105 350.776 66.0872C350.451 66.0695 350.134 65.9821 349.847 65.831C349.559 65.6799 349.308 65.4688 349.109 65.2118L342.134 56.1813C341.936 55.9244 341.795 55.6277 341.721 55.3115C341.648 54.9953 341.644 54.667 341.709 54.349Z" fill="#F9A825"/>
<path d="M364.772 41.0921C371.587 41.0921 377.111 35.5734 377.111 28.7658C377.111 21.9581 371.587 16.4395 364.772 16.4395C357.957 16.4395 352.433 21.9581 352.433 28.7658C352.433 35.5734 357.957 41.0921 364.772 41.0921Z" fill="#FFB8B8"/>
<path d="M376.787 88.6395C376.665 88.6394 376.542 88.6294 376.421 88.6096L349.718 84.2364C349.416 84.187 349.127 84.077 348.87 83.913C348.612 83.749 348.39 83.5345 348.217 83.2824C348.045 83.0303 347.925 82.7458 347.866 82.4462C347.806 82.1466 347.808 81.8381 347.872 81.5394L349.171 75.421C348.506 74.43 343.091 65.8125 349.686 57.718C349.56 54.8424 350.562 52.0311 352.479 49.8825C354.396 47.7339 357.078 46.4178 359.952 46.2143L373.752 45.167C375.527 45.0324 377.309 45.3258 378.947 46.0224C380.585 46.719 382.032 47.7985 383.165 49.17C384.299 50.5415 385.086 52.1649 385.461 53.9036C385.835 55.6423 385.786 57.4455 385.318 59.1613L378.991 86.8829C378.877 87.3814 378.596 87.8264 378.196 88.1454C377.796 88.4644 377.299 88.6385 376.787 88.6395Z" fill="#F9A825"/>
<path d="M401.724 111.821C402.177 111.175 402.483 110.438 402.62 109.662C402.757 108.886 402.722 108.089 402.517 107.328C402.313 106.567 401.944 105.86 401.436 105.256C400.928 104.653 400.294 104.168 399.579 103.836L384.374 57.1393L375.563 61.3158L392.199 106.784C391.72 108.022 391.713 109.392 392.178 110.635C392.643 111.878 393.548 112.908 394.722 113.528C395.896 114.149 397.257 114.318 398.548 114.004C399.838 113.689 400.968 112.912 401.724 111.821Z" fill="#FFB8B8"/>
<path d="M387.737 64.9138L376.038 68.4444C375.705 68.5449 375.354 68.5725 375.009 68.5253C374.665 68.4782 374.335 68.3574 374.041 68.1713C373.747 67.9851 373.497 67.738 373.308 67.4466C373.119 67.1552 372.994 66.8265 372.944 66.4828L371.168 54.4406C370.662 52.7361 370.854 50.9008 371.701 49.3373C372.548 47.7739 373.982 46.61 375.687 46.1009C377.392 45.5918 379.229 45.779 380.797 46.6216C382.364 47.4642 383.532 48.8933 384.046 50.5954L389.227 61.5692C389.375 61.8834 389.454 62.2259 389.457 62.5733C389.461 62.9206 389.39 63.2647 389.249 63.5821C389.107 63.8996 388.899 64.1828 388.638 64.4126C388.378 64.6424 388.07 64.8134 387.737 64.9138Z" fill="#F9A825"/>
<path d="M352.778 29.2418C355.517 30.2847 358.499 30.5192 361.368 29.9173C364.237 29.3155 366.872 27.9026 368.96 25.8471C367.666 29.2629 368.027 43.7506 368.027 43.7506C368.027 43.7506 379.505 38.307 381.063 37.355C390.26 31.732 377.575 7.27184 367.023 11.1294C365.235 11.7828 363.743 12.5515 363.02 14.3102C361.444 12.3686 358.461 11.9474 356.167 12.9447C353.873 13.942 352.242 16.1032 351.365 18.4441C350.672 20.3331 350.403 22.3508 350.576 24.355C350.749 26.3592 351.36 28.3011 352.366 30.0439L352.778 29.2418Z" fill="black"/>
<path d="M298.934 0.126465H16.5898C12.1942 0.130775 7.97976 1.87703 4.87154 4.98198C1.76333 8.08693 0.01524 12.2969 0.0109253 16.688V93.9751C0.01524 98.3661 1.76333 102.576 4.87154 105.681C7.97976 108.786 12.1942 110.532 16.5898 110.537H298.934C303.329 110.532 307.544 108.786 310.652 105.681C313.76 102.576 315.508 98.3661 315.512 93.9751V16.688C315.508 12.2969 313.76 8.08693 310.652 4.98198C307.544 1.87703 303.329 0.130775 298.934 0.126465ZM314.508 93.9751C314.502 98.0996 312.86 102.054 309.94 104.97C307.021 107.887 303.062 109.528 298.934 109.533H16.5898C12.4609 109.528 8.50266 107.887 5.58308 104.97C2.66351 102.054 1.02098 98.0996 1.01571 93.9751V16.688C1.02098 12.5634 2.66351 8.60929 5.58308 5.69278C8.50266 2.77627 12.4609 1.13546 16.5898 1.13019H298.934C303.062 1.13546 307.021 2.77627 309.94 5.69278C312.86 8.60929 314.502 12.5634 314.508 16.688V93.9751Z" fill="#65BCFF"/>
<path d="M44.5981 73.1477C43.4058 73.1477 42.2402 72.7945 41.2488 72.1328C40.2574 71.471 39.4846 70.5304 39.0283 69.43C38.572 68.3295 38.4527 67.1186 38.6853 65.9504C38.9179 64.7822 39.4921 63.7091 40.3352 62.8669C41.1783 62.0246 42.2525 61.4511 43.422 61.2187C44.5914 60.9863 45.8036 61.1056 46.9052 61.5614C48.0068 62.0172 48.9484 62.7891 49.6108 63.7795C50.2732 64.7699 50.6268 65.9342 50.6268 67.1253C50.625 68.722 49.9892 70.2528 48.859 71.3818C47.7288 72.5108 46.1965 73.1459 44.5981 73.1477ZM44.5981 62.1067C43.6045 62.1067 42.6332 62.401 41.807 62.9525C40.9808 63.5039 40.3369 64.2877 39.9566 65.2048C39.5764 66.1218 39.4769 67.1309 39.6708 68.1044C39.8646 69.0779 40.3431 69.9722 41.0457 70.6741C41.7483 71.3759 42.6435 71.8539 43.618 72.0475C44.5926 72.2412 45.6027 72.1418 46.5207 71.762C47.4387 71.3821 48.2233 70.7388 48.7754 69.9135C49.3274 69.0882 49.622 68.1179 49.622 67.1253C49.6205 65.7948 49.0908 64.5191 48.1489 63.5783C47.2071 62.6374 45.9301 62.1082 44.5981 62.1067Z" fill="#65BCFF"/>
<path d="M44.4003 59.5974C44.267 59.5974 44.1393 59.5445 44.045 59.4504C43.9508 59.3563 43.8979 59.2286 43.8979 59.0955V53.3241C43.8979 53.191 43.9508 53.0633 44.045 52.9692C44.1393 52.8751 44.267 52.8222 44.4003 52.8222C44.5335 52.8222 44.6613 52.8751 44.7555 52.9692C44.8498 53.0633 44.9027 53.191 44.9027 53.3241V59.0955C44.9027 59.2286 44.8498 59.3563 44.7555 59.4504C44.6613 59.5445 44.5335 59.5974 44.4003 59.5974Z" fill="#65BCFF"/>
<path d="M36.5599 67.4297H30.7824C30.6491 67.4297 30.5213 67.3768 30.4271 67.2827C30.3329 67.1886 30.28 67.0609 30.28 66.9278C30.28 66.7947 30.3329 66.6671 30.4271 66.573C30.5213 66.4788 30.6491 66.426 30.7824 66.426H36.5599C36.6931 66.426 36.8209 66.4788 36.9151 66.573C37.0093 66.6671 37.0623 66.7947 37.0623 66.9278C37.0623 67.0609 37.0093 67.1886 36.9151 67.2827C36.8209 67.3768 36.6931 67.4297 36.5599 67.4297Z" fill="#65BCFF"/>
<path d="M57.6603 67.4297H51.8828C51.7496 67.4297 51.6218 67.3768 51.5276 67.2827C51.4333 67.1886 51.3804 67.0609 51.3804 66.9278C51.3804 66.7947 51.4333 66.6671 51.5276 66.573C51.6218 66.4788 51.7496 66.426 51.8828 66.426H57.6603C57.7935 66.426 57.9213 66.4788 58.0155 66.573C58.1098 66.6671 58.1627 66.7947 58.1627 66.9278C58.1627 67.0609 58.1098 67.1886 58.0155 67.2827C57.9213 67.3768 57.7935 67.4297 57.6603 67.4297Z" fill="#65BCFF"/>
<path d="M51.7241 61.9423C51.6241 61.9423 51.5263 61.9124 51.4434 61.8566C51.3604 61.8008 51.2961 61.7215 51.2585 61.6289C51.2209 61.5363 51.2119 61.4346 51.2325 61.3369C51.2531 61.2391 51.3025 61.1497 51.3743 61.0802L53.7937 58.7353C53.8894 58.6426 54.018 58.5917 54.1512 58.5937C54.2844 58.5957 54.4114 58.6505 54.5042 58.7461C54.5969 58.8416 54.6479 58.97 54.6459 59.1031C54.6439 59.2362 54.589 59.363 54.4934 59.4557L52.0739 61.8006C51.9803 61.8916 51.8547 61.9425 51.7241 61.9423Z" fill="#65BCFF"/>
<path d="M36.9698 61.9423C36.8391 61.9424 36.7136 61.8916 36.62 61.8006L34.2005 59.4557C34.1531 59.4098 34.1153 59.3551 34.0891 59.2946C34.063 59.2341 34.049 59.169 34.048 59.1031C34.047 59.0372 34.059 58.9718 34.0833 58.9105C34.1076 58.8492 34.1438 58.7934 34.1897 58.7461C34.2356 58.6988 34.2905 58.6609 34.351 58.6348C34.4116 58.6087 34.4767 58.5947 34.5427 58.5937C34.6086 58.5927 34.6742 58.6047 34.7355 58.629C34.7968 58.6533 34.8528 58.6894 34.9001 58.7353L37.3196 61.0802C37.3914 61.1497 37.4407 61.2391 37.4614 61.3369C37.482 61.4346 37.4729 61.5363 37.4354 61.6289C37.3978 61.7215 37.3334 61.8008 37.2505 61.8566C37.1675 61.9124 37.0698 61.9423 36.9698 61.9423Z" fill="#65BCFF"/>
<path d="M35.0527 75.657C34.954 75.657 34.8574 75.6279 34.7752 75.5734C34.6929 75.5189 34.6285 75.4414 34.59 75.3505C34.5516 75.2597 34.5408 75.1596 34.5589 75.0626C34.5771 74.9657 34.6235 74.8763 34.6922 74.8055L37.1117 72.3165C37.2045 72.221 37.3316 72.1662 37.4648 72.1643C37.5981 72.1623 37.7266 72.2133 37.8222 72.3061C37.9178 72.3988 37.9726 72.5257 37.9746 72.6588C37.9766 72.7919 37.9255 72.9204 37.8327 73.0159L35.4132 75.5048C35.3664 75.553 35.3103 75.5913 35.2484 75.6175C35.1865 75.6436 35.1199 75.6571 35.0527 75.657Z" fill="#65BCFF"/>
<path d="M54.646 76.1589C54.5789 76.159 54.5126 76.1457 54.4508 76.1197C54.389 76.0936 54.3332 76.0555 54.2865 76.0075L51.3646 73.0166C51.3185 72.9694 51.2822 72.9137 51.2577 72.8525C51.2332 72.7913 51.221 72.7259 51.2218 72.66C51.2226 72.5941 51.2364 72.5291 51.2624 72.4685C51.2884 72.4079 51.3261 72.3531 51.3733 72.3071C51.4205 72.261 51.4763 72.2248 51.5376 72.2003C51.5988 72.1758 51.6643 72.1637 51.7302 72.1645C51.7962 72.1653 51.8614 72.1791 51.922 72.205C51.9826 72.231 52.0375 72.2686 52.0836 72.3158L55.0055 75.3066C55.0745 75.3773 55.1212 75.4667 55.1396 75.5637C55.158 75.6607 55.1473 75.761 55.109 75.852C55.0706 75.943 55.0062 76.0206 54.9238 76.0752C54.8414 76.1298 54.7448 76.1589 54.646 76.1589Z" fill="#65BCFF"/>
<path d="M44.4003 81.1775C44.267 81.1775 44.1393 81.1246 44.045 81.0305C43.9508 80.9364 43.8979 80.8088 43.8979 80.6757V74.9042C43.8979 74.7711 43.9508 74.6435 44.045 74.5494C44.1393 74.4552 44.267 74.4024 44.4003 74.4024C44.5335 74.4024 44.6613 74.4552 44.7555 74.5494C44.8498 74.6435 44.9027 74.7711 44.9027 74.9042V80.6757C44.9027 80.8088 44.8498 80.9364 44.7555 81.0305C44.6613 81.1246 44.5335 81.1775 44.4003 81.1775Z" fill="#65BCFF"/>
<path d="M110.117 76.6608H93.346C91.633 76.6318 89.9999 75.9317 88.7988 74.7113C87.5976 73.4909 86.9245 71.848 86.9245 70.1365C86.9245 68.425 87.5976 66.7821 88.7988 65.5617C89.9999 64.3413 91.633 63.6412 93.346 63.6123H94.6286C95.2648 62.2663 96.2696 61.1278 97.5265 60.3285C98.7835 59.5291 100.241 59.1017 101.731 59.0955C103.757 59.1141 105.7 59.9026 107.165 61.301C108.63 62.6993 109.507 64.6025 109.617 66.6235H110.117C111.435 66.6452 112.692 67.1835 113.616 68.1223C114.54 69.0611 115.058 70.3252 115.058 71.6421C115.058 72.959 114.54 74.2231 113.616 75.1619C112.692 76.1007 111.435 76.639 110.117 76.6608ZM93.346 64.616C91.8995 64.645 90.5221 65.2393 89.5093 66.2715C88.4966 67.3036 87.9294 68.6913 87.9294 70.1365C87.9294 71.5818 88.4966 72.9694 89.5093 74.0016C90.5221 75.0337 91.8995 75.6281 93.346 75.657H110.117C111.168 75.6353 112.169 75.2028 112.905 74.4522C113.641 73.7016 114.054 72.6928 114.054 71.6421C114.054 70.5914 113.641 69.5826 112.905 68.832C112.169 68.0815 111.168 67.6489 110.117 67.6272H109.13C108.997 67.6272 108.869 67.5743 108.775 67.4802C108.681 67.3861 108.628 67.2584 108.628 67.1253C108.644 65.2807 107.927 63.5051 106.634 62.1879C105.341 60.8708 103.578 60.1196 101.731 60.0992C100.381 60.1064 99.0626 60.5094 97.9396 61.2584C96.8165 62.0073 95.9383 63.0691 95.414 64.3121C95.3752 64.4023 95.3108 64.4792 95.2287 64.5332C95.1466 64.5872 95.0506 64.616 94.9523 64.616H93.346Z" fill="#65BCFF"/>
<path d="M166.137 67.1538L165.746 66.2294C166.506 65.9085 167.175 65.4056 167.694 64.765C168.214 64.1245 168.567 63.366 168.723 62.5567C168.88 61.7473 168.834 60.912 168.59 60.1244C168.347 59.3369 167.913 58.6214 167.327 58.041C166.741 57.4607 166.021 57.0335 165.231 56.7971C164.44 56.5607 163.604 56.5224 162.795 56.6855C161.986 56.8487 161.23 57.2083 160.593 57.7326C159.956 58.2569 159.459 58.9297 159.144 59.6917L158.215 59.3089C158.593 58.3946 159.19 57.5872 159.954 56.9581C160.718 56.329 161.625 55.8975 162.596 55.7017C163.566 55.5059 164.57 55.5519 165.519 55.8355C166.467 56.1192 167.331 56.6318 168.034 57.3281C168.738 58.0245 169.258 58.883 169.55 59.828C169.843 60.773 169.897 61.7754 169.71 62.7466C169.522 63.7177 169.098 64.6278 168.475 65.3965C167.852 66.1651 167.049 66.7686 166.137 67.1538Z" fill="#65BCFF"/>
<path d="M166.887 76.6608H150.116C148.403 76.6318 146.77 75.9317 145.569 74.7113C144.368 73.4909 143.695 71.848 143.695 70.1365C143.695 68.425 144.368 66.7821 145.569 65.5617C146.77 64.3413 148.403 63.6412 150.116 63.6123H151.399C152.035 62.2663 153.04 61.1278 154.297 60.3285C155.554 59.5291 157.012 59.1017 158.502 59.0955C160.528 59.1141 162.471 59.9026 163.935 61.301C165.4 62.6993 166.277 64.6025 166.388 66.6235H166.887C168.205 66.6452 169.462 67.1835 170.386 68.1223C171.311 69.0611 171.829 70.3252 171.829 71.6421C171.829 72.959 171.311 74.2231 170.386 75.1619C169.462 76.1007 168.205 76.639 166.887 76.6608ZM150.116 64.616C148.67 64.645 147.292 65.2393 146.28 66.2715C145.267 67.3036 144.7 68.6913 144.7 70.1365C144.7 71.5818 145.267 72.9694 146.28 74.0016C147.292 75.0337 148.67 75.6281 150.116 75.657H166.887C167.938 75.6353 168.94 75.2028 169.676 74.4522C170.412 73.7016 170.824 72.6928 170.824 71.6421C170.824 70.5914 170.412 69.5826 169.676 68.832C168.94 68.0815 167.938 67.6489 166.887 67.6272H165.9C165.767 67.6272 165.639 67.5743 165.545 67.4802C165.451 67.3861 165.398 67.2584 165.398 67.1253C165.414 65.2807 164.697 63.5051 163.404 62.1879C162.111 60.8708 160.348 60.1196 158.502 60.0992C157.151 60.1064 155.833 60.5094 154.71 61.2584C153.587 62.0073 152.709 63.0691 152.184 64.3121C152.145 64.4023 152.081 64.4792 151.999 64.5332C151.917 64.5872 151.821 64.616 151.722 64.616H150.116Z" fill="#65BCFF"/>
<path d="M223.657 74.1514H221.641C221.507 74.1514 221.38 74.0985 221.285 74.0044C221.191 73.9103 221.138 73.7827 221.138 73.6496C221.138 73.5165 221.191 73.3888 221.285 73.2947C221.38 73.2006 221.507 73.1477 221.641 73.1477H223.657C224.709 73.126 225.71 72.6934 226.446 71.9429C227.182 71.1923 227.594 70.1835 227.594 69.1328C227.594 68.0821 227.182 67.0733 226.446 66.3227C225.71 65.5721 224.709 65.1396 223.657 65.1179H222.671C222.537 65.1179 222.41 65.065 222.315 64.9709C222.221 64.8768 222.168 64.7491 222.168 64.616C222.184 62.7714 221.467 60.9958 220.174 59.6786C218.881 58.3615 217.118 57.6103 215.272 57.5899C213.921 57.5971 212.603 58.0001 211.48 58.749C210.357 59.498 209.479 60.5598 208.954 61.8028C208.916 61.893 208.851 61.9699 208.769 62.0239C208.687 62.0779 208.591 62.1067 208.493 62.1067H206.886C205.44 62.1357 204.062 62.73 203.05 63.7621C202.037 64.7943 201.47 66.1819 201.47 67.6272C201.47 69.0724 202.037 70.4601 203.05 71.4922C204.062 72.5244 205.44 73.1187 206.886 73.1477H208.444C208.577 73.1477 208.705 73.2006 208.799 73.2947C208.893 73.3888 208.946 73.5165 208.946 73.6496C208.946 73.7827 208.893 73.9103 208.799 74.0044C208.705 74.0985 208.577 74.1514 208.444 74.1514H206.886C205.173 74.1225 203.54 73.4224 202.339 72.202C201.138 70.9816 200.465 69.3387 200.465 67.6272C200.465 65.9157 201.138 64.2728 202.339 63.0524C203.54 61.832 205.173 61.1319 206.886 61.103H208.169C208.805 59.757 209.81 58.6185 211.067 57.8191C212.324 57.0198 213.782 56.5923 215.272 56.5862C217.298 56.6047 219.241 57.3933 220.706 58.7917C222.17 60.19 223.047 62.0931 223.158 64.1142H223.657C224.975 64.1359 226.232 64.6742 227.156 65.613C228.081 66.5518 228.599 67.8159 228.599 69.1328C228.599 70.4497 228.081 71.7138 227.156 72.6526C226.232 73.5914 224.975 74.1297 223.657 74.1514Z" fill="#65BCFF"/>
<path d="M215.189 76.3179C215.055 76.3179 214.928 76.265 214.833 76.1709C214.739 76.0768 214.686 75.9492 214.686 75.8161V70.0446C214.686 69.9115 214.739 69.7839 214.833 69.6897C214.928 69.5956 215.055 69.5428 215.189 69.5428C215.322 69.5428 215.45 69.5956 215.544 69.6897C215.638 69.7839 215.691 69.9115 215.691 70.0446V75.8161C215.691 75.9492 215.638 76.0768 215.544 76.1709C215.45 76.265 215.322 76.3179 215.189 76.3179Z" fill="#65BCFF"/>
<path d="M211.672 79.3291C211.539 79.3291 211.411 79.2762 211.317 79.1821C211.222 79.088 211.169 78.9603 211.169 78.8272V73.0558C211.169 72.9227 211.222 72.795 211.317 72.7009C211.411 72.6068 211.539 72.5539 211.672 72.5539C211.805 72.5539 211.933 72.6068 212.027 72.7009C212.121 72.795 212.174 72.9227 212.174 73.0558V78.8272C212.174 78.9603 212.121 79.088 212.027 79.1821C211.933 79.2762 211.805 79.3291 211.672 79.3291Z" fill="#65BCFF"/>
<path d="M218.705 80.8347C218.572 80.8347 218.444 80.7818 218.35 80.6877C218.256 80.5936 218.203 80.4659 218.203 80.3328V74.5614C218.203 74.4283 218.256 74.3006 218.35 74.2065C218.444 74.1124 218.572 74.0595 218.705 74.0595C218.839 74.0595 218.966 74.1124 219.061 74.2065C219.155 74.3006 219.208 74.4283 219.208 74.5614V80.3328C219.208 80.4659 219.155 80.5936 219.061 80.6877C218.966 80.7818 218.839 80.8347 218.705 80.8347Z" fill="#65BCFF"/>
<path d="M280.427 74.1514H278.411C278.277 74.1514 278.15 74.0985 278.055 74.0044C277.961 73.9103 277.908 73.7827 277.908 73.6496C277.908 73.5165 277.961 73.3888 278.055 73.2947C278.15 73.2006 278.277 73.1477 278.411 73.1477H280.427C281.479 73.126 282.48 72.6934 283.216 71.9429C283.952 71.1923 284.364 70.1835 284.364 69.1328C284.364 68.0821 283.952 67.0733 283.216 66.3227C282.48 65.5721 281.479 65.1396 280.427 65.1179H279.441C279.308 65.1179 279.18 65.065 279.086 64.9709C278.991 64.8768 278.938 64.7491 278.938 64.616C278.954 62.7714 278.237 60.9958 276.944 59.6786C275.651 58.3615 273.888 57.6103 272.042 57.5899C270.692 57.5971 269.373 58.0001 268.25 58.749C267.127 59.498 266.249 60.5598 265.724 61.8028C265.686 61.893 265.621 61.9699 265.539 62.0239C265.457 62.0779 265.361 62.1067 265.263 62.1067H263.657C262.21 62.1357 260.833 62.73 259.82 63.7621C258.807 64.7943 258.24 66.1819 258.24 67.6272C258.24 69.0724 258.807 70.4601 259.82 71.4922C260.833 72.5244 262.21 73.1187 263.657 73.1477H265.214C265.347 73.1477 265.475 73.2006 265.569 73.2947C265.663 73.3888 265.716 73.5165 265.716 73.6496C265.716 73.7827 265.663 73.9103 265.569 74.0044C265.475 74.0985 265.347 74.1514 265.214 74.1514H263.657C261.944 74.1225 260.31 73.4224 259.109 72.202C257.908 70.9816 257.235 69.3387 257.235 67.6272C257.235 65.9157 257.908 64.2728 259.109 63.0524C260.31 61.832 261.944 61.1319 263.657 61.103H264.939C265.575 59.757 266.58 58.6185 267.837 57.8191C269.094 57.0198 270.552 56.5923 272.042 56.5862C274.068 56.6047 276.011 57.3933 277.476 58.7917C278.941 60.19 279.817 62.0931 279.928 64.1142H280.427C281.745 64.1359 283.002 64.6742 283.927 65.613C284.851 66.5518 285.369 67.8159 285.369 69.1328C285.369 70.4497 284.851 71.7138 283.927 72.6526C283.002 73.5914 281.745 74.1297 280.427 74.1514Z" fill="#65BCFF"/>
<path d="M271.176 72.8968C271.801 72.8968 272.307 72.3912 272.307 71.7676C272.307 71.1439 271.801 70.6384 271.176 70.6384C270.552 70.6384 270.046 71.1439 270.046 71.7676C270.046 72.3912 270.552 72.8968 271.176 72.8968Z" fill="#65BCFF"/>
<path d="M274.944 74.4024C275.569 74.4024 276.075 73.8968 276.075 73.2732C276.075 72.6495 275.569 72.144 274.944 72.144C274.32 72.144 273.814 72.6495 273.814 73.2732C273.814 73.8968 274.32 74.4024 274.944 74.4024Z" fill="#65BCFF"/>
<path d="M268.665 76.1589C269.289 76.1589 269.795 75.6533 269.795 75.0297C269.795 74.4061 269.289 73.9005 268.665 73.9005C268.04 73.9005 267.534 74.4061 267.534 75.0297C267.534 75.6533 268.04 76.1589 268.665 76.1589Z" fill="#65BCFF"/>
<path d="M272.684 78.6682C273.308 78.6682 273.814 78.1627 273.814 77.539C273.814 76.9154 273.308 76.4098 272.684 76.4098C272.059 76.4098 271.553 76.9154 271.553 77.539C271.553 78.1627 272.059 78.6682 272.684 78.6682Z" fill="#65BCFF"/>
<path d="M58.7907 36.0098H29.652C28.5861 36.0098 27.5638 35.5868 26.81 34.8338C26.0563 34.0809 25.6329 33.0597 25.6329 31.9948C25.6329 30.93 26.0563 29.9088 26.81 29.1559C27.5638 28.4029 28.5861 27.9799 29.652 27.9799H58.7907C59.8566 27.9799 60.8789 28.4029 61.6326 29.1559C62.3864 29.9088 62.8098 30.93 62.8098 31.9948C62.8098 33.0597 62.3864 34.0809 61.6326 34.8338C60.8789 35.5868 59.8566 36.0098 58.7907 36.0098Z" fill="#F9A825"/>
<path d="M115.561 36.0098H86.4222C85.3562 36.0098 84.334 35.5868 83.5802 34.8338C82.8265 34.0809 82.4031 33.0597 82.4031 31.9948C82.4031 30.93 82.8265 29.9088 83.5802 29.1559C84.334 28.4029 85.3562 27.9799 86.4222 27.9799H115.561C116.627 27.9799 117.649 28.4029 118.403 29.1559C119.157 29.9088 119.58 30.93 119.58 31.9948C119.58 33.0597 119.157 34.0809 118.403 34.8338C117.649 35.5868 116.627 36.0098 115.561 36.0098Z" fill="#F9A825"/>
<path d="M172.331 36.0098H143.192C142.126 36.0098 141.104 35.5868 140.35 34.8338C139.597 34.0809 139.173 33.0597 139.173 31.9948C139.173 30.93 139.597 29.9088 140.35 29.1559C141.104 28.4029 142.126 27.9799 143.192 27.9799H172.331C173.397 27.9799 174.419 28.4029 175.173 29.1559C175.927 29.9088 176.35 30.93 176.35 31.9948C176.35 33.0597 175.927 34.0809 175.173 34.8338C174.419 35.5868 173.397 36.0098 172.331 36.0098Z" fill="#F9A825"/>
<path d="M229.101 36.0098H199.963C198.897 36.0098 197.874 35.5868 197.121 34.8338C196.367 34.0809 195.943 33.0597 195.943 31.9948C195.943 30.93 196.367 29.9088 197.121 29.1559C197.874 28.4029 198.897 27.9799 199.963 27.9799H229.101C230.167 27.9799 231.189 28.4029 231.943 29.1559C232.697 29.9088 233.12 30.93 233.12 31.9948C233.12 33.0597 232.697 34.0809 231.943 34.8338C231.189 35.5868 230.167 36.0098 229.101 36.0098Z" fill="#F9A825"/>
<path d="M285.871 36.0098H256.733C255.667 36.0098 254.645 35.5868 253.891 34.8338C253.137 34.0809 252.714 33.0597 252.714 31.9948C252.714 30.93 253.137 29.9088 253.891 29.1559C254.645 28.4029 255.667 27.9799 256.733 27.9799H285.871C286.937 27.9799 287.96 28.4029 288.713 29.1559C289.467 29.9088 289.891 30.93 289.891 31.9948C289.891 33.0597 289.467 34.0809 288.713 34.8338C287.96 35.5868 286.937 36.0098 285.871 36.0098Z" fill="#F9A825"/>
<path d="M71.3505 83.185C71.2172 83.185 71.0894 83.1321 70.9952 83.038C70.901 82.9439 70.8481 82.8162 70.8481 82.6831V44.5414C70.8481 44.4083 70.901 44.2807 70.9952 44.1866C71.0894 44.0925 71.2172 44.0396 71.3505 44.0396C71.4837 44.0396 71.6115 44.0925 71.7057 44.1866C71.7999 44.2807 71.8528 44.4083 71.8528 44.5414V82.6831C71.8528 82.8162 71.7999 82.9439 71.7057 83.038C71.6115 83.1321 71.4837 83.185 71.3505 83.185Z" fill="#E6E6E6"/>
<path d="M128.121 82.6831C127.987 82.6831 127.86 82.6302 127.765 82.5361C127.671 82.442 127.618 82.3144 127.618 82.1813V44.0396C127.618 43.9065 127.671 43.7788 127.765 43.6847C127.86 43.5906 127.987 43.5377 128.121 43.5377C128.254 43.5377 128.382 43.5906 128.476 43.6847C128.57 43.7788 128.623 43.9065 128.623 44.0396V82.1813C128.623 82.3144 128.57 82.442 128.476 82.5361C128.382 82.6302 128.254 82.6831 128.121 82.6831Z" fill="#E6E6E6"/>
<path d="M187.905 82.6831C187.772 82.6831 187.644 82.6302 187.55 82.5361C187.456 82.442 187.403 82.3144 187.403 82.1813V44.0396C187.403 43.9065 187.456 43.7788 187.55 43.6847C187.644 43.5906 187.772 43.5377 187.905 43.5377C188.038 43.5377 188.166 43.5906 188.26 43.6847C188.355 43.7788 188.408 43.9065 188.408 44.0396V82.1813C188.408 82.3144 188.355 82.442 188.26 82.5361C188.166 82.6302 188.038 82.6831 187.905 82.6831Z" fill="#E6E6E6"/>
<path d="M244.675 82.6831C244.542 82.6831 244.414 82.6302 244.32 82.5361C244.226 82.442 244.173 82.3144 244.173 82.1813V44.0396C244.173 43.9065 244.226 43.7788 244.32 43.6847C244.414 43.5906 244.542 43.5377 244.675 43.5377C244.809 43.5377 244.936 43.5906 245.031 43.6847C245.125 43.7788 245.178 43.9065 245.178 44.0396V82.1813C245.178 82.3144 245.125 82.442 245.031 82.5361C244.936 82.6302 244.809 82.6831 244.675 82.6831Z" fill="#E6E6E6"/>
<path d="M453.577 210.408H262.166C262.033 210.408 261.905 210.355 261.811 210.261C261.717 210.166 261.664 210.039 261.664 209.906C261.664 209.773 261.717 209.645 261.811 209.551C261.905 209.457 262.033 209.404 262.166 209.404H453.577C453.71 209.404 453.838 209.457 453.932 209.551C454.027 209.645 454.079 209.773 454.079 209.906C454.079 210.039 454.027 210.166 453.932 210.261C453.838 210.355 453.71 210.408 453.577 210.408Z" fill="#65BCFF"/>
</svg>
