<svg width="63" height="58" viewBox="0 0 63 58" fill="none" xmlns="http://www.w3.org/2000/svg">
<g filter="url(#filter0_d_5_102)">
<rect x="4.73755" width="54.2403" height="50" rx="8" fill="#0F172A" fill-opacity="0.77"/>
<path d="M18.2976 21.0532H46.4039M18.2976 21.0532V37.3253C18.2976 37.7176 18.4535 38.0939 18.7309 38.3713C19.0083 38.6487 19.3846 38.8045 19.7769 38.8045H44.9246C45.317 38.8045 45.6932 38.6487 45.9707 38.3713C46.2481 38.0939 46.4039 37.7176 46.4039 37.3253V21.0532M18.2976 21.0532V14.3964C18.2976 14.0041 18.4535 13.6278 18.7309 13.3504C19.0083 13.073 19.3846 12.9171 19.7769 12.9171H44.9246C45.317 12.9171 45.6932 13.073 45.9707 13.3504C46.2481 13.6278 46.4039 14.0041 46.4039 14.3964V21.0532" stroke="white" stroke-width="4" stroke-linejoin="round"/>
<path d="M26.4336 29.9288L30.8714 34.3667L39.7471 25.491" stroke="white" stroke-width="4" stroke-linecap="round" stroke-linejoin="round"/>
<path d="M26.4336 10.6982V16.6153M38.2678 10.6982V16.6153" stroke="white" stroke-width="4" stroke-linecap="round"/>
</g>
<defs>
<filter id="filter0_d_5_102" x="0.737549" y="0" width="62.2402" height="58" filterUnits="userSpaceOnUse" color-interpolation-filters="sRGB">
<feFlood flood-opacity="0" result="BackgroundImageFix"/>
<feColorMatrix in="SourceAlpha" type="matrix" values="0 0 0 0 0 0 0 0 0 0 0 0 0 0 0 0 0 0 127 0" result="hardAlpha"/>
<feOffset dy="4"/>
<feGaussianBlur stdDeviation="2"/>
<feComposite in2="hardAlpha" operator="out"/>
<feColorMatrix type="matrix" values="0 0 0 0 0 0 0 0 0 0 0 0 0 0 0 0 0 0 0.25 0"/>
<feBlend mode="normal" in2="BackgroundImageFix" result="effect1_dropShadow_5_102"/>
<feBlend mode="normal" in="SourceGraphic" in2="effect1_dropShadow_5_102" result="shape"/>
</filter>
</defs>
</svg>
