<svg width="32" height="32" viewBox="0 0 32 32" fill="none" xmlns="http://www.w3.org/2000/svg">
<path d="M16.3576 11.4693C15.3908 11.4693 14.4457 11.756 13.6418 12.2931C12.8379 12.8302 12.2114 13.5937 11.8414 14.4869C11.4714 15.3801 11.3746 16.363 11.5632 17.3112C11.7519 18.2594 12.2174 19.1305 12.9011 19.8141C13.5847 20.4977 14.4557 20.9633 15.4039 21.1519C16.3522 21.3405 17.335 21.2437 18.2282 20.8737C19.1215 20.5037 19.8849 19.8772 20.422 19.0733C20.9592 18.2695 21.2458 17.3244 21.2458 16.3576C21.242 15.0623 20.7257 13.8212 19.8098 12.9053C18.8939 11.9894 17.6528 11.4732 16.3576 11.4693ZM26.9113 16.3576C26.9088 16.8143 26.8753 17.2704 26.8111 17.7226L29.7863 20.0519C29.9158 20.1589 30.0031 20.3084 30.0326 20.4739C30.062 20.6393 30.0317 20.8099 29.947 20.955L27.1325 25.8139C27.047 25.9578 26.9134 26.0668 26.7554 26.1219C26.5974 26.177 26.425 26.1746 26.2685 26.1152L22.7704 24.7098C22.0419 25.2707 21.2448 25.7362 20.3983 26.095L19.8753 29.8088C19.846 29.9752 19.7599 30.1262 19.6316 30.2361C19.5033 30.346 19.3409 30.4079 19.172 30.4113H13.5432C13.3774 30.4081 13.2175 30.3488 13.0898 30.243C12.9621 30.1372 12.874 29.9913 12.8399 29.829L12.3168 26.1152C11.468 25.7605 10.6703 25.2943 9.94479 24.7287L6.44663 26.1341C6.29026 26.1936 6.11791 26.1961 5.95988 26.1411C5.80186 26.0861 5.66828 25.9772 5.58263 25.8335L2.76821 20.9751C2.6835 20.83 2.65315 20.6595 2.68258 20.4941C2.71202 20.3286 2.79933 20.179 2.92891 20.072L5.90403 17.7428C5.84065 17.2837 5.80717 16.821 5.80382 16.3576C5.80636 15.9008 5.83984 15.4447 5.90403 14.9925L2.92891 12.6633C2.79933 12.5563 2.71202 12.4067 2.68258 12.2412C2.65315 12.0758 2.6835 11.9053 2.76821 11.7601L5.58263 6.90122C5.66818 6.75737 5.80172 6.64831 5.95976 6.59321C6.11779 6.53811 6.29019 6.54051 6.44663 6.59998L9.94479 8.00535C10.6732 7.44445 11.4704 6.97895 12.3168 6.62014L12.8399 2.90628C12.8691 2.73993 12.9553 2.5889 13.0836 2.47901C13.2118 2.36912 13.3743 2.30719 13.5432 2.3038H19.172C19.3378 2.30703 19.4976 2.36637 19.6254 2.47213C19.7531 2.57789 19.8412 2.72383 19.8753 2.88612L20.3983 6.59998C21.2482 6.95436 22.047 7.42062 22.7734 7.98641L26.2685 6.58103C26.4249 6.52151 26.5973 6.51903 26.7553 6.57401C26.9133 6.629 27.0469 6.73793 27.1325 6.88166L29.947 11.7406C30.0317 11.8857 30.062 12.0562 30.0326 12.2217C30.0031 12.3871 29.9158 12.5367 29.7863 12.6437L26.8111 14.973C26.8745 15.4318 26.908 15.8943 26.9113 16.3576Z" fill="white"/>
</svg>
