<svg width="56" height="54" viewBox="0 0 56 54" fill="none" xmlns="http://www.w3.org/2000/svg">
<g filter="url(#filter0_d_9_74)">
<rect x="4.39832" width="47" height="46" rx="8" fill="#0F172A" fill-opacity="0.77"/>
<path d="M26.8116 8.12744C25.5255 8.12744 24.2531 8.39185 23.0735 8.90426C21.8939 9.41668 20.8322 10.1661 19.9544 11.1061C19.0766 12.0461 18.4014 13.1565 17.9708 14.3684C17.5402 15.5803 17.3633 16.8678 17.4512 18.1509C16.2422 18.6736 15.1849 19.4934 14.3774 20.534C13.5699 21.5746 13.0383 22.8023 12.8321 24.1032C12.6259 25.4041 12.7517 26.7361 13.1978 27.9754C13.6439 29.2147 14.3959 30.3212 15.384 31.1923C15.695 31.4668 16.1024 31.6066 16.5165 31.5807C16.9305 31.5549 17.3174 31.3657 17.5919 31.0547C17.8665 30.7436 18.0062 30.3363 17.9804 29.9222C17.9546 29.5081 17.7654 29.1212 17.4543 28.8467C16.8065 28.2746 16.3292 27.5348 16.075 26.7087C15.8208 25.8827 15.7996 25.0025 16.0137 24.1652C16.2278 23.3278 16.6689 22.5659 17.2884 21.9632C17.9079 21.3606 18.6818 20.9407 19.5247 20.7498C19.9289 20.659 20.2805 20.4116 20.5024 20.0618C20.7243 19.7121 20.7984 19.2886 20.7084 18.8842C20.536 18.081 20.5235 17.2517 20.6717 16.4436C20.8198 15.6356 21.1256 14.8646 21.5717 14.1748C22.0177 13.4849 22.5953 12.8896 23.2714 12.423C23.9475 11.9563 24.7089 11.6274 25.5122 11.455C26.3154 11.2826 27.1447 11.2701 27.9528 11.4183C28.7608 11.5664 29.5318 11.8722 30.2217 12.3183C30.9115 12.7643 31.5068 13.3419 31.9734 14.018C32.4401 14.6941 32.769 15.4555 32.9414 16.2588C33.0144 16.617 33.2107 16.9383 33.4961 17.1669C33.7815 17.3954 34.138 17.5168 34.5035 17.5097H34.6302C35.943 17.5097 37.2225 17.9228 38.2875 18.6904C39.3525 19.458 40.1489 20.5412 40.5641 21.7866C40.9792 23.0321 40.992 24.3765 40.6006 25.6296C40.2091 26.8827 39.4333 27.9808 38.3831 28.7685C38.2188 28.8918 38.0805 29.0463 37.9759 29.2231C37.8713 29.3999 37.8025 29.5955 37.7736 29.7989C37.7446 30.0022 37.756 30.2093 37.807 30.4083C37.8581 30.6072 37.9478 30.7942 38.0712 30.9585C38.1945 31.1228 38.3489 31.2612 38.5257 31.3657C38.7025 31.4703 38.8982 31.5391 39.1015 31.568C39.3049 31.597 39.512 31.5856 39.7109 31.5346C39.9099 31.4835 40.0969 31.3938 40.2611 31.2705C41.7646 30.1426 42.8946 28.5892 43.5049 26.8116C44.1151 25.034 44.1774 23.114 43.6837 21.3006C43.19 19.4871 42.163 17.8638 40.7358 16.6408C39.3087 15.4179 37.5471 14.6518 35.6795 14.4417C35.0414 12.5978 33.8444 10.9987 32.2549 9.86695C30.6655 8.73521 28.7628 8.12716 26.8116 8.12744ZM29.8593 28.9499C29.9242 28.755 29.9501 28.5493 29.9354 28.3444C29.9208 28.1395 29.866 27.9395 29.7741 27.7558C29.6821 27.5722 29.555 27.4084 29.3997 27.2739C29.2445 27.1393 29.0643 27.0367 28.8695 26.9718C28.6746 26.9069 28.4688 26.881 28.264 26.8957C28.0591 26.9103 27.8591 26.9651 27.6754 27.057C27.3044 27.2427 27.0224 27.5681 26.8914 27.9616L23.7639 37.3439C23.699 37.5388 23.6732 37.7446 23.6878 37.9494C23.7024 38.1543 23.7573 38.3543 23.8492 38.538C24.0348 38.9089 24.3602 39.191 24.7538 39.322C25.1473 39.4531 25.5768 39.4224 25.9478 39.2368C26.3188 39.0512 26.6008 38.7258 26.7319 38.3322L29.8593 28.9499ZM35.1243 25.4081C35.3192 25.4729 35.4995 25.5755 35.6547 25.7101C35.8099 25.8446 35.9371 26.0084 36.0291 26.1921C36.121 26.3758 36.1758 26.5758 36.1904 26.7807C36.205 26.9855 36.1791 27.1913 36.1142 27.3862L32.9867 36.7685C32.8557 37.1621 32.5736 37.4874 32.2027 37.6731C31.8317 37.8587 31.4022 37.8894 31.0086 37.7583C30.6151 37.6273 30.2897 37.3452 30.104 36.9743C29.9184 36.6033 29.8877 36.1738 30.0188 35.7802L33.1462 26.3979C33.2111 26.203 33.3137 26.0228 33.4482 25.8675C33.5827 25.7123 33.7465 25.5851 33.9302 25.4932C34.1139 25.4013 34.3139 25.3464 34.5188 25.3318C34.7237 25.3172 34.9295 25.3431 35.1243 25.4081ZM24.3879 27.3862C24.5189 26.9926 24.4882 26.5631 24.3026 26.1921C24.117 25.8212 23.7916 25.5391 23.398 25.4081C23.0044 25.277 22.5749 25.3077 22.204 25.4933C21.833 25.6789 21.551 26.0043 21.4199 26.3979L18.2925 35.7802C18.1614 36.1738 18.1921 36.6033 18.3777 36.9743C18.5634 37.3452 18.8887 37.6273 19.2823 37.7583C19.6759 37.8894 20.1054 37.8587 20.4764 37.6731C20.8473 37.4874 21.1294 37.1621 21.2604 36.7685L24.3879 27.3862Z" fill="white"/>
</g>
<defs>
<filter id="filter0_d_9_74" x="0.398315" y="0" width="55" height="54" filterUnits="userSpaceOnUse" color-interpolation-filters="sRGB">
<feFlood flood-opacity="0" result="BackgroundImageFix"/>
<feColorMatrix in="SourceAlpha" type="matrix" values="0 0 0 0 0 0 0 0 0 0 0 0 0 0 0 0 0 0 127 0" result="hardAlpha"/>
<feOffset dy="4"/>
<feGaussianBlur stdDeviation="2"/>
<feComposite in2="hardAlpha" operator="out"/>
<feColorMatrix type="matrix" values="0 0 0 0 0 0 0 0 0 0 0 0 0 0 0 0 0 0 0.25 0"/>
<feBlend mode="normal" in2="BackgroundImageFix" result="effect1_dropShadow_9_74"/>
<feBlend mode="normal" in="SourceGraphic" in2="effect1_dropShadow_9_74" result="shape"/>
</filter>
</defs>
</svg>
