<svg width="63" height="58" viewBox="0 0 63 58" fill="none" xmlns="http://www.w3.org/2000/svg">
<g filter="url(#filter0_d_5_81)">
<rect x="4" width="55" height="50" rx="8" fill="#0F172A" fill-opacity="0.77"/>
<path d="M34.875 30.6733V11.245C34.8752 10.5886 34.7266 9.93853 34.4377 9.33209C34.1487 8.72564 33.7251 8.17469 33.1911 7.71075C32.657 7.24681 32.023 6.87899 31.3253 6.62834C30.6276 6.37769 29.8799 6.24913 29.125 6.25C27.601 6.25 26.1393 6.7761 25.0612 7.7127C23.983 8.6493 23.3765 9.91979 23.375 11.245V30.6733C22.0736 31.6851 21.1564 33.0167 20.7448 34.4919C20.3331 35.967 20.4466 37.5161 21.07 38.9339C21.6935 40.3518 22.7975 41.5715 24.236 42.4315C25.6744 43.2916 27.3793 43.7514 29.125 43.75C30.8711 43.7505 32.5763 43.2901 34.015 42.4298C35.4538 41.5695 36.5583 40.3497 37.1826 38.9317C37.8066 37.5141 37.92 35.965 37.5078 34.49C37.0956 33.015 36.1774 31.6839 34.875 30.6733Z" stroke="white" stroke-width="3" stroke-linecap="round" stroke-linejoin="round"/>
<path d="M29.125 33.7233C29.8868 33.7233 30.6175 33.9863 31.1566 34.4544C31.6956 34.9225 31.999 35.5575 32 36.22C31.9995 36.8827 31.6964 37.5182 31.1573 37.9867C30.6181 38.4552 29.8872 38.7183 29.125 38.7183C28.3628 38.7183 27.6319 38.4552 27.0927 37.9867C26.5536 37.5182 26.2505 36.8827 26.25 36.22C26.251 35.5575 26.5544 34.9225 27.0934 34.4544C27.6325 33.9863 28.3632 33.7233 29.125 33.7233ZM29.125 33.7233V11.245M40.625 11.245H43.5M40.625 18.7383H43.5M40.625 26.23H43.5" stroke="white" stroke-width="3" stroke-linecap="round" stroke-linejoin="round"/>
</g>
<defs>
<filter id="filter0_d_5_81" x="0" y="0" width="63" height="58" filterUnits="userSpaceOnUse" color-interpolation-filters="sRGB">
<feFlood flood-opacity="0" result="BackgroundImageFix"/>
<feColorMatrix in="SourceAlpha" type="matrix" values="0 0 0 0 0 0 0 0 0 0 0 0 0 0 0 0 0 0 127 0" result="hardAlpha"/>
<feOffset dy="4"/>
<feGaussianBlur stdDeviation="2"/>
<feComposite in2="hardAlpha" operator="out"/>
<feColorMatrix type="matrix" values="0 0 0 0 0 0 0 0 0 0 0 0 0 0 0 0 0 0 0.25 0"/>
<feBlend mode="normal" in2="BackgroundImageFix" result="effect1_dropShadow_5_81"/>
<feBlend mode="normal" in="SourceGraphic" in2="effect1_dropShadow_5_81" result="shape"/>
</filter>
</defs>
</svg>
