<svg width="59" height="55" viewBox="0 0 59 55" fill="none" xmlns="http://www.w3.org/2000/svg">
<g filter="url(#filter0_d_5_96)">
<rect width="49.225" height="44.3991" transform="translate(4.97168 0.800537)" fill="#1A3346" fill-opacity="0.3"/>
<rect x="4.97168" y="0.800537" width="49.225" height="44.3991" rx="8" fill="#0F172A" fill-opacity="0.77"/>
<path d="M23.3192 16.9514C23.4437 13.0807 26.078 10.0103 29.2858 10.0103C30.852 10.0402 32.3456 10.8129 33.4443 12.1618C34.5431 13.5106 35.1589 15.3273 35.1589 17.22C35.1589 19.1126 34.5431 20.9294 33.4443 22.2782C32.3456 23.627 30.852 24.3998 29.2858 24.4297H16.0473C15.8 24.4297 15.5629 24.311 15.3881 24.0998C15.2132 23.8885 15.115 23.602 15.115 23.3032C15.115 23.0044 15.2132 22.7179 15.3881 22.5066C15.5629 22.2954 15.8 22.1767 16.0473 22.1767H29.2858C30.3738 22.1765 31.4171 21.6542 32.1863 20.7246C32.9556 19.7949 33.3876 18.5341 33.3875 17.2195C33.3874 15.9049 32.9552 14.6442 32.1858 13.7148C31.4164 12.7853 30.373 12.2632 29.2851 12.2633C28.2233 12.2647 27.2032 12.7626 26.4385 13.6527C25.6738 14.5427 25.2239 15.7559 25.183 17.0379C25.1708 17.3342 25.0625 17.6126 24.8815 17.8129C24.7004 18.0132 24.4613 18.1192 24.2161 18.1078C23.9708 18.0964 23.7391 17.9686 23.5713 17.7521C23.4036 17.5356 23.3132 17.2479 23.3199 16.9514M36.0983 24.4856C36.343 23.3105 36.9055 22.2679 37.6965 21.5231C38.4875 20.7783 39.4616 20.3739 40.4644 20.3742C42.9331 20.3742 44.9491 22.7913 44.9491 25.7815C44.9491 27.2156 44.4776 28.591 43.6384 29.6051C42.7992 30.6191 41.6609 31.1888 40.4741 31.1888H37.9323C38.3611 31.9792 38.6095 32.9228 38.6095 33.9285C38.6095 36.6132 36.8106 38.8492 34.5656 38.8492C33.8145 38.8495 33.0782 38.5969 32.4393 38.1198C31.8004 37.6428 31.2841 36.96 30.9483 36.1482L30.8767 35.9734C30.8208 35.8409 30.7872 35.6964 30.7777 35.5482C30.7683 35.3999 30.7832 35.2509 30.8217 35.1097C30.8602 34.9684 30.9214 34.8378 31.0018 34.7253C31.0822 34.6128 31.1803 34.5206 31.2904 34.4542C31.4004 34.3877 31.5203 34.3482 31.643 34.3379C31.7658 34.3277 31.889 34.3469 32.0056 34.3944C32.1221 34.442 32.2298 34.517 32.3222 34.615C32.4147 34.7131 32.4902 34.8323 32.5444 34.9658L32.6167 35.1407C32.7976 35.5781 33.0757 35.946 33.42 36.2031C33.7642 36.4602 34.1609 36.5963 34.5656 36.5961C35.7582 36.5961 36.7449 35.3957 36.7449 33.9285C36.7449 32.4217 35.7321 31.1888 34.5074 31.1888H16.0473C15.8 31.1888 15.5629 31.0701 15.3881 30.8589C15.2132 30.6476 15.115 30.3611 15.115 30.0623C15.115 29.7635 15.2132 29.477 15.3881 29.2657C15.5629 29.0545 15.8 28.9358 16.0473 28.9358H40.4733C41.1657 28.9358 41.8296 28.6035 42.3192 28.0119C42.8087 27.4204 43.0838 26.6181 43.0838 25.7815C43.0838 24.0431 41.9083 22.6273 40.4636 22.6273C39.8767 22.6271 39.3065 22.8636 38.8434 23.2993C38.3803 23.735 38.0507 24.345 37.9069 25.0326L37.8353 25.3787C37.7754 25.6686 37.6226 25.9179 37.4106 26.0717C37.1985 26.2255 36.9446 26.2712 36.7046 26.1988C36.4647 26.1264 36.2584 25.9417 36.1311 25.6855C36.0038 25.4293 35.966 25.1225 36.0259 24.8326L36.0983 24.4856Z" fill="white"/>
</g>
<defs>
<filter id="filter0_d_5_96" x="0.97168" y="0.800537" width="57.2251" height="53.2583" filterUnits="userSpaceOnUse" color-interpolation-filters="sRGB">
<feFlood flood-opacity="0" result="BackgroundImageFix"/>
<feColorMatrix in="SourceAlpha" type="matrix" values="0 0 0 0 0 0 0 0 0 0 0 0 0 0 0 0 0 0 127 0" result="hardAlpha"/>
<feOffset dy="4"/>
<feGaussianBlur stdDeviation="2"/>
<feComposite in2="hardAlpha" operator="out"/>
<feColorMatrix type="matrix" values="0 0 0 0 0 0 0 0 0 0 0 0 0 0 0 0 0 0 0.25 0"/>
<feBlend mode="normal" in2="BackgroundImageFix" result="effect1_dropShadow_5_96"/>
<feBlend mode="normal" in="SourceGraphic" in2="effect1_dropShadow_5_96" result="shape"/>
</filter>
</defs>
</svg>
