<svg width="60" height="59" viewBox="0 0 60 59" fill="none" xmlns="http://www.w3.org/2000/svg">
<g filter="url(#filter0_d_9_69)">
<rect x="4" width="52" height="51" rx="8" fill="#0F172A" fill-opacity="0.77"/>
<path d="M18.9218 27.7479C18.9218 22.319 23.567 16.9536 26.829 13.8564C27.6668 13.0471 28.7861 12.5947 29.9509 12.5947C31.1158 12.5947 32.2351 13.0471 33.0729 13.8564C36.3336 16.9549 40.9801 22.319 40.9801 27.7479C40.9801 33.0705 36.8033 38.5462 29.9509 38.5462C23.0986 38.5462 18.9218 33.0705 18.9218 27.7479Z" stroke="white" stroke-width="3"/>
<path d="M19.5706 25.9392C21.4715 25.3501 25.2694 25.1606 29.9302 27.7791C34.5832 30.3924 38.4058 29.4607 40.3314 28.3409" stroke="white" stroke-width="3" stroke-linecap="round" stroke-linejoin="round"/>
</g>
<defs>
<filter id="filter0_d_9_69" x="0" y="0" width="60" height="59" filterUnits="userSpaceOnUse" color-interpolation-filters="sRGB">
<feFlood flood-opacity="0" result="BackgroundImageFix"/>
<feColorMatrix in="SourceAlpha" type="matrix" values="0 0 0 0 0 0 0 0 0 0 0 0 0 0 0 0 0 0 127 0" result="hardAlpha"/>
<feOffset dy="4"/>
<feGaussianBlur stdDeviation="2"/>
<feComposite in2="hardAlpha" operator="out"/>
<feColorMatrix type="matrix" values="0 0 0 0 0 0 0 0 0 0 0 0 0 0 0 0 0 0 0.25 0"/>
<feBlend mode="normal" in2="BackgroundImageFix" result="effect1_dropShadow_9_69"/>
<feBlend mode="normal" in="SourceGraphic" in2="effect1_dropShadow_9_69" result="shape"/>
</filter>
</defs>
</svg>
