<svg width="32" height="32" viewBox="0 0 32 32" fill="none" xmlns="http://www.w3.org/2000/svg">
<path d="M28.6778 18.7097C28.6778 22.7754 25.3434 26.0707 21.2294 26.0707H14.3389M18.7462 11.767C19.5447 11.4897 20.3841 11.3483 21.2294 11.3486C22.0819 11.3486 22.9018 11.4907 23.667 11.7514M23.667 11.7514C23.2512 8.0741 20.0953 5.21414 16.2629 5.21414C12.1489 5.21414 8.8145 8.50948 8.8145 12.5752C8.8141 13.4485 8.9704 14.3147 9.27595 15.1328M23.667 11.7514C24.5465 12.0516 25.3618 12.5141 26.0707 13.1149M9.27595 15.1328C8.91942 15.0638 8.55715 15.0289 8.19402 15.0285C5.10854 15.0298 2.60706 17.5013 2.60706 20.5503C2.60706 23.5992 5.10854 26.0707 8.19402 26.0707H9.12474M9.27595 15.1328C9.9971 15.2732 10.6836 15.554 11.2964 15.9592" stroke="white" stroke-width="3" stroke-linecap="round"/>
</svg>
