<svg width="41" height="41" viewBox="0 0 41 41" fill="none" xmlns="http://www.w3.org/2000/svg">
<path d="M35.875 12.2351C35.875 10.4533 35.875 9.56156 35.3915 8.89019C34.9081 8.21881 34.0625 7.93694 32.3712 7.37319L30.381 6.71036C28.0457 5.93136 26.8789 5.54186 25.7019 5.70073C24.5265 5.8579 23.5015 6.53952 21.4532 7.90448L19.0923 9.47956C17.4933 10.5456 16.6938 11.0786 15.7953 11.2904C15.4663 11.3689 15.1304 11.4147 14.7925 11.4271C13.87 11.4578 12.9594 11.1537 11.1366 10.5456C8.74838 9.74948 7.55425 9.35144 6.64542 9.75631C6.32335 9.89961 6.03431 10.1078 5.79637 10.3679C5.125 11.1042 5.125 12.3615 5.125 14.8796V21.824M35.875 18.7917V26.1204C35.875 28.6385 35.875 29.8976 35.2036 30.6304C34.966 30.8918 34.677 31.1011 34.3546 31.2454C33.4458 31.6486 32.2516 31.2506 29.8634 30.4545C28.0406 29.8463 27.13 29.5422 26.2075 29.5747C25.8691 29.5858 25.5327 29.6304 25.203 29.7079C24.3062 29.9215 23.5067 30.4545 21.9077 31.5188L19.5468 33.0939C17.4968 34.4605 16.4735 35.1439 15.2981 35.2993C14.1228 35.4582 12.9543 35.0687 10.619 34.2897L8.62879 33.6269C6.93754 33.0631 6.09192 32.7812 5.60846 32.1099C5.15062 31.4744 5.12671 30.6407 5.125 29.0417M25.625 5.97919V11.9584M25.625 29.0417V18.7917M15.375 35.0209V29.0417M15.375 11.9584V22.2084" stroke="white" stroke-width="3" stroke-linecap="round"/>
</svg>
