<svg width="34" height="34" viewBox="0 0 34 34" fill="none" xmlns="http://www.w3.org/2000/svg">
<path opacity="0.5" d="M31.1667 17.5001C31.1667 13.9981 28.8901 11.0217 25.7196 9.93796M25.7196 9.93796C24.888 9.65462 23.9984 9.50021 23.0719 9.50021C22.1532 9.49985 21.241 9.65357 20.3731 9.95496M25.7196 9.93796C25.2677 5.94154 21.8394 2.83337 17.6744 2.83337C13.2034 2.83337 9.57954 6.41471 9.57812 10.8333C9.57769 11.7823 9.74755 12.7237 10.0796 13.6128C10.8634 13.7654 11.6094 14.0706 12.2755 14.511M8.90379 25.5C5.55337 25.5 2.83337 22.814 2.83337 19.5005C2.83337 16.1869 5.55196 13.4995 8.90521 13.4995C9.30849 13.5004 9.70043 13.5382 10.081 13.6128" stroke="white" stroke-width="3" stroke-linecap="round"/>
<path d="M24.1513 21.4512C24.6996 21.267 25.2903 21.1678 25.9052 21.1678C26.5072 21.1678 27.0867 21.2627 27.6264 21.4398M27.6264 21.4398C29.6877 22.1184 31.1667 23.9785 31.1667 26.1658C31.1667 28.9283 28.8107 31.1667 25.9052 31.1667H16.6968C14.5166 31.1667 12.75 29.4893 12.75 27.4168C12.75 25.3442 14.518 23.6668 16.6954 23.6668C16.952 23.6673 17.2081 23.691 17.4604 23.7377M27.6264 21.4398C27.3346 18.9422 25.1033 17 22.3975 17C19.4905 17 17.136 19.2383 17.136 21.9994C17.1364 22.594 17.2469 23.1833 17.4618 23.7377C17.9803 23.834 18.4634 24.0281 18.8884 24.2987" stroke="white" stroke-width="3" stroke-linecap="round"/>
</svg>
