<?xml version="1.0" standalone="no"?>
<!DOCTYPE svg PUBLIC "-//W3C//DTD SVG 1.1//EN" "http://www.w3.org/Graphics/SVG/1.1/DTD/svg11.dtd" >
<svg xmlns="http://www.w3.org/2000/svg">
<metadata>Generated by IcoMoon</metadata>
<defs>
<font id="icomoon" horiz-adv-x="1024">
<font-face units-per-em="1024" ascent="960" descent="-64" />
<missing-glyph horiz-adv-x="1024" />
<glyph unicode="&#x20;" horiz-adv-x="512" d="" />
<<<<<<< HEAD
<glyph unicode="&#xe900;" glyph-name="calendar" d="M141.5 66.185h748.030v426.726h-748.030v-426.726zM701.136 461.123c24.238 24.238 63.553 24.238 87.788 0 24.222-24.235 24.225-63.525 0-87.757l-275.425-275.425c-11.633-11.633-27.421-18.178-43.877-18.181-16.462 0-32.272 6.541-43.911 18.181l-137.696 137.728c-24.228 24.235-24.232 63.522 0 87.757 24.233 24.235 63.521 24.228 87.759 0l93.817-93.786 231.545 231.483zM637.077 692.669v52.697h-243.122v-52.697c0-34.275-27.785-62.062-62.061-62.062-34.271 0.006-62.061 27.789-62.061 62.062v52.697h-128.333v-128.334h748.030v128.334h-128.332v-52.697c0-34.271-27.794-62.052-62.061-62.062-34.276 0-62.061 27.786-62.061 62.062zM1013.651 50.033c0-28.635-11.388-56.087-31.635-76.335s-47.7-31.635-76.335-31.635h-780.333c-28.633 0-56.087 11.391-76.333 31.635-20.247 20.247-31.636 47.7-31.636 76.335v711.484c0 28.634 11.389 56.086 31.636 76.333l3.879 3.697c19.804 17.929 45.613 27.939 72.455 27.939h144.485v6.788c0 34.272 27.79 62.056 62.061 62.061 34.276 0 62.061-27.785 62.061-62.061v-6.788h243.122v6.788c0 34.275 27.785 62.061 62.061 62.061 34.267-0.007 62.061-27.79 62.061-62.061v-6.788h144.483c26.841 0 52.649-10.009 72.456-27.939l3.879-3.697 3.696-3.879c17.932-19.805 27.94-45.612 27.94-72.455v-711.484z" />
<glyph unicode="&#xe901;" glyph-name="check" d="M7.418 102.95v690.087c0 42.312 16.798 82.907 46.717 112.826s70.515 46.717 112.826 46.717h517.564c24.587-0.004 44.522-19.935 44.522-44.522s-19.935-44.518-44.522-44.522h-517.564c-18.696 0-36.628-7.432-49.848-20.652s-20.652-31.152-20.652-49.848v-690.087c0.002-18.692 7.434-36.63 20.652-49.849 13.219-13.214 31.155-20.629 49.848-20.629h690.086c18.695 0.002 36.63 7.411 49.849 20.629s20.629 31.156 20.631 49.849v345.043c0 24.587 19.935 44.517 44.522 44.522 24.587 0 44.522-19.932 44.522-44.522v-345.043c-0.002-42.309-16.8-82.888-46.719-112.805-29.916-29.916-70.496-46.714-112.805-46.717h-690.086c-42.312 0-82.907 16.798-112.826 46.717-29.915 29.916-46.715 70.498-46.717 112.805zM940.571 824.515c17.386 17.387 45.57 17.387 62.956 0 17.388-17.387 17.388-45.57 0-62.957l-460.043-460.044c-17.386-17.386-45.57-17.386-62.956 0l-172.522 172.522c-17.388 17.388-17.388 45.57 0 62.956 17.388 17.381 45.572 17.386 62.956 0l141.043-141.043 428.566 428.565z" />
<glyph unicode="&#xe902;" glyph-name="chevron-down" d="M13.655 673.049l496.039-496.041 496.042 496.041-62.226 61.348-433.816-433.817-433.815 433.817-62.224-61.348z" />
<glyph unicode="&#xe903;" glyph-name="climate" d="M968 137.437c0 62.784-42.512 117.264-103.453 137.33v0.014c-15.854 5.2-32.954 8-50.813 8-18.242 0-35.68-2.936-51.781-8.344-12.565-4.221-26.186 2.546-30.406 15.11-4.216 12.562 2.549 26.168 15.109 30.39 21.050 7.070 43.659 10.843 67.078 10.843 8.701 0 17.293-0.514 25.734-1.531-21.667 54.802-77.642 94.75-144.594 94.75-86.405-0.003-154.266-66.234-154.266-145.39 0.010-13.080 1.874-26.069 5.499-38.594 15.331-4.298 29.728-10.762 42.766-19.062 11.181-7.118 14.477-21.96 7.358-33.141-7.117-11.181-21.958-14.477-33.139-7.36-11.827 7.53-25.294 12.958-39.782 15.656-0.024 0.005-0.053-0.005-0.078 0-7.117 1.317-14.339 1.986-21.578 2-61.685-0.011-109.653-47.234-109.656-103.046 0-55.822 47.941-103.062 109.734-103.062h312c86.355 0.003 154.264 66.232 154.266 145.437zM968 431.062c-0.003 107.931-70.176 199.949-168.328 233.501v0.014c-25.725 8.762-53.246 13.531-81.938 13.531h-0.016c-28.443 0.011-56.693-4.746-83.562-14.077-12.52-4.346-26.2 2.277-30.547 14.797-4.349 12.52 2.291 26.198 14.813 30.546 31.936 11.091 65.504 16.747 99.312 16.734l6.374-0.062c17.997-0.374 35.603-2.346 52.704-5.749-28.334 105.583-125.749 183.702-241.97 183.702-138.496-0.002-250.267-110.866-250.312-247.062-0.011-25.043 3.826-49.915 11.344-73.75 24.605-6.376 48.024-16.773 69.282-30.827 11.056-7.312 14.091-22.21 6.781-33.266-7.31-11.051-22.195-14.088-33.25-6.782-19.941 13.186-42.285 22.322-65.75 26.891l-0.718 0.141c-11.106 2.128-22.605 3.237-34.531 3.266-100.607-0.022-181.687-80.589-181.688-179.328 0-98.747 81.15-179.282 181.688-179.282 13.251-0.005 24-10.747 24-24s-10.749-23.995-24-24c-126.503 0-229.688 101.483-229.688 227.282 0.001 125.789 103.129 227.328 229.734 227.328h0.046c2.126-0.005 4.248-0.034 6.36-0.094-5.056 21.744-7.619 44.032-7.61 66.438l0.094 7.624c4.139 159.685 136.314 287.42 298.218 287.422 148.102 0 271.198-106.844 294.376-247.25 109.341-43.622 186.778-149.56 186.781-273.688 0-13.254-10.746-24-24-24s-24 10.746-24 24zM1016 137.437c-0.002-107.989-91.733-193.434-202.266-193.437h-312c-85.95 0-157.734 66.437-157.734 151.062 0.003 82.589 68.418 147.818 151.515 150.906-1.909 10.749-2.899 21.664-2.906 32.626v0.016c0 107.942 91.685 193.387 202.266 193.39 97.704 0 180.584-66.68 198.594-156.781 71.526-29.403 122.531-97.462 122.531-177.782z" />
<glyph unicode="&#xe904;" glyph-name="cloud-button" d="M5.504 266.635c0.001 126.636 103.814 228.767 231.227 228.823h0.048c1.855-0.003 3.71-0.003 5.564-0.050-4.95 21.593-7.445 43.717-7.436 65.952 0.007 164.198 134.585 296.787 300.015 296.79 148.81 0 272.579-107.244 296.081-248.274 29.921-11.966 57.752-28.687 82.387-49.565 10.437-8.844 11.73-24.482 2.887-34.918-8.846-10.438-24.482-11.733-34.92-2.889-23.834 20.201-51.255 35.748-80.822 45.839v0.017c-25.745 8.768-53.34 13.548-82.065 13.548h-0.017c-28.467 0.012-56.736-4.757-83.628-14.097-12.926-4.489-27.044 2.35-31.533 15.274-4.489 12.926 2.349 27.044 15.274 31.533 32.126 11.157 65.894 16.851 99.903 16.838l6.403-0.064c17.727-0.368 35.092-2.271 51.968-5.564-28.736 105.113-125.988 182.774-241.92 182.774-138.622-0.003-250.467-110.968-250.467-247.258l0.226-10.983c0.941-21.218 4.676-42.21 11.031-62.469 24.624-6.426 48.057-16.861 69.34-30.935 11.413-7.546 14.546-22.91 7-34.322s-22.91-14.547-34.322-7.001c-19.93 13.18-42.258 22.318-65.709 26.888-11.629 2.248-23.446 3.371-35.29 3.387-100.621-0.056-181.677-80.574-181.678-179.274 0-98.714 81.072-179.243 181.693-179.243h34.388c13.682 0 24.774-11.092 24.774-24.774-0.003-13.68-11.094-24.774-24.774-24.774h-34.388c-127.424 0-231.241 102.154-231.241 228.791zM968.94 334.65c0 13.68 11.094 24.771 24.774 24.774 13.682 0 24.774-11.091 24.774-24.774-0.002-164.202-134.583-296.801-300.017-296.806h-254.644c-13.682 0-24.773 11.094-24.774 24.774 0 13.682 11.091 24.774 24.774 24.774h254.644c138.622 0.005 250.467 110.97 250.469 247.258z" />
<glyph unicode="&#xe905;" glyph-name="cloud-loading" d="M316.959 22.859c7.57-0.004 13.712-6.142 13.714-13.714 0-7.572-6.144-13.711-13.714-13.714h-97.536c-7.572 0.004-13.714 6.142-13.714 13.714s6.144 13.711 13.714 13.714h97.536zM560.763 22.859c7.572 0 13.712-6.14 13.714-13.714 0-7.574-6.14-13.714-13.714-13.714h-97.518c-7.574 0-13.714 6.14-13.714 13.714s6.14 13.714 13.714 13.714h97.518zM804.566 22.859c7.574 0 13.712-6.14 13.714-13.714 0-7.574-6.14-13.714-13.714-13.714h-97.518c-7.574 0-13.714 6.14-13.714 13.714s6.14 13.714 13.714 13.714h97.518zM985.905 374.859c-0.002 54.559-21.672 106.885-60.25 145.465-35.957 35.955-83.858 57.221-134.376 59.946-7.119-51.741-28.454-100.586-61.804-140.999-4.82-5.842-13.46-6.661-19.302-1.84-5.84 4.82-6.678 13.462-1.858 19.302 32.571 39.472 52.485 87.845 57.143 138.805 0.645 7.621 0.987 15.347 1.019 23.177 0.093 65.637-25.179 128.771-70.535 176.215-45.365 47.45-107.31 75.543-172.893 78.393-65.585 2.849-129.746-19.769-179.054-63.107-45.292-39.81-74.834-94.287-83.679-153.589 2.617 0.079 5.241 0.143 7.876 0.143 57.975 0 111.521-19.167 154.534-51.518 6.053-4.553 7.267-13.162 2.715-19.215s-13.162-7.267-19.215-2.714c-38.416 28.891-86.201 46.018-138.035 46.018-3.736 0-7.444-0.091-11.125-0.267l-10.964-0.805c-58.847-5.663-113.26-33.761-151.947-78.464-38.685-44.701-58.68-102.577-55.839-161.626s28.308-114.736 71.107-155.518c42.8-40.781 99.651-63.528 158.768-63.517h512c54.559 0 106.885 21.67 145.465 60.25 38.577 38.579 60.25 90.907 60.25 145.465zM1013.334 374.859c0-61.833-24.565-121.134-68.286-164.857-43.723-43.723-103.024-68.286-164.857-68.286h-512c-66.165-0.013-129.796 25.446-177.697 71.089-47.899 45.643-76.391 107.966-79.571 174.054s19.202 130.862 62.5 180.891c40.839 47.19 97.326 77.851 158.875 86.501 8.571 68.179 41.783 131.037 93.588 176.571 54.623 48.009 125.703 73.049 198.358 69.893 72.651-3.158 141.266-34.276 191.517-86.839 50.253-52.565 78.256-122.511 78.144-195.233v-0.035c-0.015-3.685-0.128-7.349-0.269-11.001 56.931-3.286 110.868-27.35 151.411-67.893 43.723-43.721 68.284-103.024 68.286-164.857z" />
<glyph unicode="&#xe906;" glyph-name="clouds" d="M921.337 154.112c0 49.091-33.298 92.859-82.801 109.17-12.788 4.193-26.671 6.486-41.258 6.486-14.886-0.003-29.026-2.414-41.999-6.773-22.973-7.712-47.853 4.658-55.571 27.63s4.655 47.85 27.628 55.571c17.996 6.045 37.034 9.751 56.686 10.913-22.341 27.393-57.675 45.685-98.684 45.688-70.676 0-124.053-53.883-124.059-115.686 0.006-6.656 0.629-13.283 1.829-19.801 11.949-4.324 23.289-9.877 33.801-16.571 20.445-13.017 26.475-40.155 13.458-60.6-13.019-20.442-40.155-26.446-60.6-13.429-6.659 4.239-14.032 7.586-21.917 9.857l-8.054 1.916-8.23 1.112c-2.753 0.257-5.518 0.395-8.286 0.401-47.379-0.032-81.973-36.001-81.973-75.799 0.003-39.813 34.588-75.799 82.087-75.799h293.885c70.63 0 124.050 53.865 124.059 115.715zM921.337 430.712c-0.003 92.166-59.933 171.031-144.173 199.826v0.029c-19.304 6.571-39.79 10.512-61.112 11.402l-9.201 0.199c-24.415 0.009-48.678-4.076-71.741-12.086-22.897-7.946-47.879 4.163-55.828 27.057s4.16 47.907 27.057 55.858c32.32 11.223 66.3 16.953 100.513 16.943 8.037 0 16.004-0.359 23.886-0.972-33.254 73.994-108.307 125.969-196.143 125.972-118.948 0-214.475-95.142-214.513-211.458-0.009-17.674 2.232-35.255 6.627-52.315 21.106-6.656 41.241-16.203 59.772-28.455 20.211-13.371 25.764-40.586 12.399-60.799-13.368-20.22-40.609-25.77-60.829-12.402-16.454 10.881-34.892 18.432-54.256 22.2l-7.057 1.2c-7.122 1.036-14.486 1.583-22.114 1.6-83.235-0.041-149.828-66.642-149.828-147.658 0.005-81.019 66.668-147.596 149.857-147.599 24.237 0 43.886-19.649 43.886-43.886-0.004-24.234-19.651-43.886-43.886-43.886-130.669 0.003-237.623 104.887-237.629 235.371 0 123.957 96.483 224.821 218.257 234.601-1.982 13.906-2.978 27.958-2.971 42.057l0.371 15.427c8.166 158.514 140.663 283.773 301.914 283.773 145.78-0.003 267.84-102.31 296.085-239.028 104.931-46.719 178.428-151.111 178.431-272.97 0-24.237-19.649-43.886-43.886-43.886-24.24 0-43.886 19.646-43.886 43.886zM1009.108 154.112c-0.009-114.483-96.993-203.486-211.83-203.486h-293.885c-91.671 0-169.855 71.086-169.858 163.571 0 82.385 62.078 147.754 140.373 161.058-0.237 3.932-0.398 7.879-0.401 11.829v0.029c0.006 114.436 96.946 203.457 211.83 203.457 97.646-0.003 182.164-64.19 205.455-153.857 69.246-32.827 118.316-101.478 118.316-182.6z" />
<glyph unicode="&#xe907;" glyph-name="edit-Stroke" d="M918.622 721.998c-0.003 35.341-14.041 69.239-39.029 94.229s-58.889 39.025-94.228 39.028c-35.346 0-69.266-14.036-94.258-39.028l-25.913-25.886c1.513-6.78 3.742-15.154 7.028-24.629 9.383-27.067 27.133-62.695 60.656-96.2l6.317-6.116c31.642-29.614 64.541-45.764 89.913-54.57 9.421-3.268 17.756-5.483 24.515-6.998l25.972 25.913c24.991 24.991 39.029 58.912 39.029 94.257zM1006.393 721.998c0-58.625-23.292-114.863-64.743-156.314l-55.685-55.685-0.059 0.029-369.942-370c-25.287-25.243-40.466-40.536-57.4-53.742-19.412-15.129-40.425-28.134-62.631-38.745l-0.085-0.026c-19.371-9.207-39.755-15.933-73.684-27.23l-183.887-61.343c-16.161-5.418-33.521-6.214-50.114-2.314-16.591 3.903-31.777 12.349-43.829 24.4-12.051 12.054-20.499 27.238-24.4 43.827-3.901 16.595-3.105 33.956 2.314 50.115l69.057 206.974c7.089 20.966 12.607 36.065 19.514 50.597l0.029 0.088c10.645 22.288 23.572 43.181 38.743 62.628l5.086 6.284c12.124 14.602 26.585 28.985 48.686 51.086l119.942 119.887c17.142 17.136 44.921 17.142 62.057 0 17.13-17.142 17.113-44.924-0.029-62.057l-119.913-119.887c-26.718-26.718-37.472-37.581-46.6-49.284l-0.029-0.029c-11.233-14.4-20.81-29.836-28.714-46.373-6.378-13.417-11.256-27.92-23.2-63.798l-40.743-122.087 46.171-46.141 122.114 40.685c35.808 11.919 50.29 16.84 63.687 23.201l12.2 6.229c12.016 6.562 23.473 14.117 34.284 22.543 11.717 9.137 22.587 19.889 49.371 46.627l7.086 7.115 0.088 0.114 322.771 322.771c-31.566 12.864-68.822 33.634-104.659 67.171l-8.429 8.142c-38.406 38.388-61.478 79.101-75.34 113.172l-52.458-52.486c-17.139-17.134-44.921-17.137-62.057 0-17.133 17.138-17.133 44.92 0 62.057l148.085 148.086c41.454 41.453 97.693 64.743 156.315 64.743 58.62-0.003 114.834-23.293 156.286-64.743 41.449-41.45 64.74-97.667 64.743-156.286z" />
<glyph unicode="&#xe908;" glyph-name="humidity" d="M510.334 956.767c52.879-0.001 103.694-20.485 141.8-57.133 57.235-54.388 127.792-129.71 184.334-216.434 56.153-86.133 101.533-188.133 101.533-294.865-0.003-206.626-162.284-419.765-427.667-419.768-265.388 0-427.666 213.142-427.668 419.768 0 106.728 45.348 208.756 101.5 294.898 56.533 86.727 127.066 162.025 184.333 216.4 38.108 36.657 88.945 57.133 141.834 57.133zM510.334 854.367c-26.487 0-51.951-10.298-71.001-28.7l-0.3-0.3c-54.075-51.343-118.487-120.472-169.066-198.067-24.59-37.722-45.173-76.395-59.933-115.133 82.016 7.417 195.777-7.857 324.665-80.268 137.987-77.493 246.897-50.828 299.933-21.832-5.53 71.902-37.642 146.234-83.93 217.232-50.586 77.59-115.002 146.725-169.069 198.1l-0.3 0.267c-19.046 18.402-44.513 28.699-70.997 28.7zM185.067 388.335c0.002-156.73 122.868-317.368 325.267-317.368 161.454 0 272.193 102.25 310.432 223.167-80.906-24.211-193.092-26.289-319.799 39.632l-16.435 8.868c-134.886 75.776-242.681 74.998-298.933 62.3-0.328-5.55-0.533-11.083-0.533-16.599z" />
<glyph unicode="&#xe909;" glyph-name="map" d="M640 500.324c0 16.007 12.976 28.981 28.981 28.981s28.981-12.974 28.981-28.981v-301.413c30.701-1.509 62.535-12.479 110.018-28.322 37.25-12.416 62.798-20.892 82.529-25.018 16.996-3.555 25.965-3.014 31.792-1.113l2.32 0.906c6.192 2.786 11.753 6.807 16.322 11.83l0.056 0.075c4.224 4.61 8.291 12.64 10.586 32.339 2.328 20.018 2.376 46.946 2.376 86.227v224.49c0 16.007 12.976 28.981 28.981 28.981s28.981-12.974 28.981-28.981v-224.49c0-37.84 0.037-68.768-2.774-92.925-2.848-24.468-9.056-46.957-25.395-64.792l-0.019 0.019c-9.952-10.924-22.041-19.68-35.529-25.718l-0.075-0.056c-22.086-9.798-45.377-8.571-69.489-3.528-23.801 4.979-53.111 14.792-89.001 26.755v0.017c-57.897 19.317-79.994 26.238-101.791 25.472h-0.075c-8.449-0.278-16.848-1.407-25.076-3.341-21.218-5.070-40.8-17.586-91.509-51.339l-72.302-48.263c-60.372-40.249-98.14-66.282-142.359-72.151-44.227-5.974-87.535 9.173-156.357 32.132v0.017l-60.963 20.285c-25.266 8.422-46.541 15.48-63.189 23.225-17.323 8.061-32.322 18.040-43.679 33.811l0.019 0.019c-10.738 14.912-15.549 31.263-17.868 49.094-2.228 17.134-2.389 37.718-2.415 61.755-0.017 16.003 12.941 28.999 28.943 29.018 16.004 0.017 28.999-12.939 29.019-28.942 0.027-24.939 0.267-41.615 1.925-54.359 1.37-10.532 3.517-16.54 6.226-20.924l1.189-1.793c3.449-4.79 8.818-9.419 21.094-15.132 12.956-6.028 30.54-11.929 57.075-20.774l60.963-20.32c54.78-18.274 84.538-27.756 107.528-29.982v163.245c0 16.007 12.976 28.981 28.981 28.981s28.981-12.974 28.981-28.981v-151.452c19.359 9.544 43.912 25.583 82.718 51.453l72.339 48.244c42.761 28.461 70.95 47.628 100.943 56.944v308.773zM640 709.626v151.492c-19.396-9.544-43.962-25.596-82.735-51.434l-72.302-48.227c-42.72-28.48-70.921-47.654-100.963-56.943v-308.85c-0.004-16.001-12.978-28.981-28.981-28.981s-28.977 12.98-28.981 28.981v301.415c-30.685 1.544-62.505 12.487-110.018 28.34v0.019c-37.252 12.417-62.804 20.863-82.529 24.981-16.99 3.548-25.936 2.985-31.755 1.076l-2.321-0.887c-6.209-2.763-11.805-6.763-16.396-11.773-4.271-4.687-8.313-12.786-10.604-32.472-2.329-20.018-2.377-46.926-2.377-86.207v-212.718c-0.004-16.001-12.978-28.981-28.981-28.981s-28.977 12.98-28.981 28.981v212.718c0 37.84-0.037 68.749 2.774 92.906 2.85 24.485 9.068 46.944 25.359 64.811l0.038 0.038c8.731 9.543 19.1 17.418 30.604 23.264l5 2.396c22.090 9.835 45.376 8.621 69.491 3.585 17.857-3.729 38.815-10.183 63.321-18.226l25.699-8.528 37.283-12.245c31.597-10.044 48.128-13.811 64.471-13.283 8.441 0.309 16.842 1.454 25.057 3.415l0.075 0.019c21.249 5.010 40.786 17.524 91.565 51.377l72.321 48.245c60.393 40.245 98.157 66.202 142.359 72.113v-0.019c44.272 5.966 87.523-9.196 156.338-32.151h-0.017l60.98-20.302c25.266-8.422 46.542-15.462 63.189-23.208 17.325-8.062 32.322-18.038 43.68-33.811 11.353-15.766 16.059-33.152 18.225-52.132 2.081-18.241 2.038-40.645 2.038-67.264-0.002-16.005-12.976-28.981-28.981-28.981s-28.979 12.976-28.981 28.981c0 27.953-0.041 46.497-1.66 60.698-1.536 13.462-4.225 20.033-7.68 24.83-3.449 4.791-8.816 9.419-21.094 15.132-12.955 6.028-30.54 11.928-57.075 20.774v0.019l-60.963 20.283c-54.799 18.28-84.526 27.798-107.528 30.019v-163.284c-0.004-16.001-12.978-28.981-28.981-28.981s-28.977 12.98-28.981 28.981z" />
<glyph unicode="&#xe90a;" glyph-name="notification-button" d="M924.729 168.391c-27.429 24.453-51.443 52.484-71.395 83.343-21.804 42.585-34.861 89.105-38.4 136.817v140.515c0.187 74.934-26.994 147.357-76.439 203.663s-117.748 92.619-192.076 102.115v36.693c0 10.071-4.002 19.73-11.123 26.851s-16.78 11.122-26.851 11.122c-10.070 0-19.728-4.001-26.851-11.122-7.121-7.121-11.122-16.78-11.122-26.851v-37.262c-73.664-10.181-141.142-46.713-189.936-102.829s-75.599-128.016-75.45-202.381v-140.515c-3.541-47.711-16.596-94.232-38.4-136.817-19.602-30.788-43.23-58.816-70.258-83.343-3.034-2.666-5.466-5.946-7.133-9.624-1.668-3.679-2.533-7.671-2.538-11.71v-38.683c0-7.545 2.997-14.78 8.331-20.114s12.569-8.331 20.113-8.331h790.755c7.545 0 14.779 2.996 20.114 8.331 5.333 5.333 8.331 12.569 8.331 20.114v38.683c-0.005 4.039-0.87 8.031-2.537 11.71-1.668 3.678-4.099 6.958-7.133 9.624zM145.92 136.817c26.459 25.572 49.759 54.22 69.405 85.334 27.471 51.429 43.482 108.197 46.934 166.4v140.515c-1.128 33.337 4.462 66.558 16.441 97.688s30.099 59.531 53.283 83.512c23.182 23.982 50.955 43.053 81.661 56.077 30.708 13.024 63.721 19.737 97.075 19.737 33.356 0 66.369-6.713 97.077-19.737 30.706-13.024 58.479-32.095 81.661-56.077 23.184-23.981 41.304-52.382 53.283-83.512s17.569-64.351 16.441-97.688v-140.515c3.452-58.203 19.463-114.971 46.934-166.4 19.645-31.114 42.946-59.762 69.405-85.334h-729.6zM512-15.075c17.918 0.413 35.113 7.149 48.543 19.017 13.43 11.87 22.231 28.104 24.843 45.837h-149.617c2.687-18.213 11.899-34.832 25.921-46.76 14.022-11.93 31.902-18.359 50.31-18.094z" />
<glyph unicode="&#xe90b;" glyph-name="profile" d="M511.998 372.772c-53.205 0-104.231 21.134-141.851 58.756-37.622 37.622-58.756 88.646-58.756 141.851s21.134 104.231 58.756 141.853c37.62 37.62 88.646 58.756 141.851 58.756s104.231-21.136 141.851-58.756c37.622-37.622 58.758-88.648 58.758-141.853s-21.136-104.229-58.758-141.851c-37.62-37.622-88.646-58.756-141.851-58.756zM511.998 422.923c19.758 0 39.323 3.893 57.578 11.453 18.254 7.561 34.839 18.644 48.811 32.615s25.054 30.558 32.615 48.812c7.561 18.254 11.453 37.818 11.453 57.576s-3.891 39.323-11.453 57.578c-7.561 18.254-18.644 34.841-32.615 48.811s-30.557 25.054-48.811 32.615-37.82 11.453-57.578 11.453c-39.904 0-78.173-15.85-106.388-44.068-28.216-28.216-44.068-66.485-44.068-106.388s15.852-78.173 44.068-106.388c28.216-28.216 66.485-44.068 106.388-44.068zM1013.519 448c0 276.988-224.531 501.52-501.521 501.52s-501.52-224.531-501.52-501.52c0-276.99 224.53-501.521 501.52-501.521s501.521 224.531 501.521 501.521zM753.481 66.592c-72.187-45.846-155.968-70.121-241.483-69.961-87.556-0.16-173.248 25.293-246.522 73.221-6.018 7.522-12.121 15.295-18.306 23.32-7.173 9.397-11.043 20.902-11.007 32.725 0 27.007 19.407 49.65 45.361 53.437 171.646 25.075 289.83 22.92 461.7-0.878 12.441-1.818 23.805-8.070 32.001-17.602 8.197-9.534 12.676-21.707 12.61-34.279 0-12.036-4.137-23.723-11.611-32.851-7.707-9.378-15.288-18.421-22.744-27.132zM837.61 135.402c-4.012 46.942-39.645 86.111-87.514 92.731-175.934 24.348-298.907 26.681-475.819 0.828-48.146-7.022-83.628-46.542-87.841-93.61-80.862 83.979-125.965 196.067-125.806 312.649 0 249.279 202.087 451.368 451.368 451.368s451.368-202.088 451.368-451.368c0.16-116.556-44.925-228.625-125.756-312.598z" />
<glyph unicode="&#xe90c;" glyph-name="profile-button" d="M287.79 728.261c0 59.465 23.622 116.493 65.671 158.54 42.046 42.047 99.075 65.669 158.539 65.669s116.493-23.622 158.539-65.669c42.048-42.047 65.671-99.076 65.671-158.54s-23.622-116.491-65.671-158.539c-42.046-42.046-99.075-65.669-158.539-65.669s-116.493 23.622-158.539 65.669c-42.048 42.048-65.671 99.075-65.671 158.539zM287.79 391.947c-74.328 0-145.615-29.527-198.174-82.087s-82.087-123.844-82.087-198.174c0-44.598 17.716-87.369 49.252-118.904s74.307-49.252 118.905-49.252h672.627c44.598 0 87.369 17.717 118.904 49.252s49.252 74.306 49.252 118.904c0 74.33-29.527 145.615-82.087 198.174s-123.846 82.087-198.174 82.087h-448.42z" />
<glyph unicode="&#xe90d;" glyph-name="rain" d="M463.579 946.911c-40.474 0-80.518-8.321-117.641-24.447s-70.535-39.712-98.16-69.294c-27.625-29.581-48.873-64.527-62.424-102.665s-19.117-78.657-16.352-119.036c-38.047-16.452-71.322-42.249-96.734-74.997s-42.141-71.387-48.63-112.327c-6.49-40.94-2.531-82.856 11.509-121.859 14.040-39 37.705-73.825 68.799-101.237 9.789-8.639 22.609-13.036 35.64-12.225 13.031 0.814 25.206 6.767 33.846 16.558 8.64 9.788 13.038 22.608 12.226 35.638-0.812 13.033-6.768 25.207-16.556 33.846-20.387 18.005-35.408 41.287-43.407 67.282-8 25.998-8.667 53.697-1.929 80.048s20.62 50.33 40.116 69.296c19.496 18.964 43.849 32.179 70.376 38.187 12.719 2.856 23.785 10.644 30.769 21.649 6.984 11.008 9.316 24.337 6.483 37.060-5.425 25.279-5.819 51.376-1.157 76.807s14.285 49.693 28.324 71.403c14.037 21.711 32.213 40.443 53.493 55.129 21.276 14.686 45.238 25.037 70.517 30.462s51.376 5.818 76.809 1.157c25.429-4.661 49.692-14.286 71.401-28.324 21.712-14.038 40.445-32.215 55.128-53.492 14.686-21.278 25.037-45.239 30.464-70.517 2.298-11.274 8.476-21.387 17.456-28.578 8.983-7.194 20.201-11.011 31.704-10.792h3.985c41.316 0 81.582-12.999 115.098-37.154 33.516-24.158 58.581-58.246 71.646-97.442 13.065-39.194 13.466-81.505 1.149-120.937-12.319-39.435-36.733-73.995-69.786-98.785-5.168-3.88-9.523-8.741-12.817-14.305-3.291-5.564-5.453-11.722-6.366-18.122-0.91-6.4-0.552-12.917 1.055-19.177 1.604-6.261 4.429-12.146 8.311-17.314 3.88-5.171 8.741-9.526 14.305-12.817s11.722-5.456 18.122-6.366c6.4-0.913 12.917-0.555 19.177 1.052s12.146 4.432 17.314 8.311c47.314 35.496 82.879 84.38 102.081 140.322 19.206 55.945 21.166 116.363 5.629 173.434-15.539 57.071-47.858 108.157-92.772 146.645-44.914 38.486-100.349 62.597-159.127 69.207-20.079 58.029-57.751 108.354-107.77 143.97s-109.898 54.752-171.304 54.743zM559.491 291.618c2.042 6.135 2.856 12.609 2.395 19.058-0.458 6.446-2.185 12.74-5.077 18.52-2.893 5.783-6.895 10.937-11.779 15.169-4.887 4.233-10.556 7.464-16.688 9.506s-12.609 2.856-19.055 2.395c-6.448-0.461-12.743-2.185-18.523-5.077-11.674-5.842-20.551-16.082-24.676-28.467l-98.421-295.268c-2.042-6.133-2.856-12.607-2.395-19.055 0.458-6.448 2.185-12.74 5.077-18.52 5.842-11.676 16.082-20.551 28.467-24.676 12.388-4.124 25.904-3.16 37.578 2.682s20.551 16.082 24.676 28.467l98.421 295.265zM725.185 403.083c6.133-2.042 11.804-5.271 16.688-9.506 4.887-4.233 8.889-9.387 11.782-15.167 2.893-5.783 4.619-12.078 5.077-18.523 0.461-6.448-0.356-12.925-2.398-19.058l-98.423-295.265c-4.122-12.385-12.999-22.628-24.673-28.467-11.674-5.842-25.193-6.807-37.578-2.682s-22.625 12.999-28.467 24.673c-5.842 11.676-6.807 25.193-2.682 37.578l98.421 295.265c2.042 6.135 5.271 11.804 9.503 16.691 4.235 4.887 9.39 8.889 15.169 11.782s12.075 4.619 18.523 5.077c6.448 0.461 12.922-0.356 19.058-2.398zM387.302 340.83c4.124 12.388 3.16 25.904-2.682 37.578s-16.082 20.551-28.467 24.676c-12.388 4.124-25.904 3.157-37.578-2.685-11.676-5.84-20.551-16.080-24.675-28.467l-98.422-295.265c-4.124-12.385-3.159-25.902 2.683-37.578 5.842-11.674 16.082-20.548 28.468-24.673s25.903-3.16 37.577 2.682c11.674 5.84 20.55 16.082 24.674 28.467l98.422 295.265z" />
<glyph unicode="&#xe90e;" glyph-name="settings-button" d="M512 624.552c-34.918 0-69.053-10.355-98.087-29.754s-51.663-46.973-65.026-79.235c-13.363-32.26-16.859-67.759-10.046-102.006 6.811-34.248 23.626-65.705 48.317-90.398 24.693-24.691 56.151-41.506 90.398-48.319 34.248-6.811 69.747-3.316 102.008 10.048 32.26 13.363 59.833 35.992 79.233 65.026s29.754 63.168 29.754 98.087c-0.139 46.781-18.785 91.607-51.866 124.686-33.079 33.080-77.905 51.726-124.686 51.866zM893.175 448c-0.092-16.497-1.301-32.969-3.619-49.302l107.455-84.127c4.679-3.865 7.834-9.267 8.896-15.242 1.063-5.976-0.034-12.134-3.093-17.376l-101.65-175.492c-3.090-5.196-7.913-9.135-13.621-11.125s-11.933-1.903-17.585 0.244l-126.344 50.759c-26.31-20.258-55.1-37.071-85.672-50.029l-18.891-134.135c-1.058-6.008-4.168-11.464-8.801-15.432-4.634-3.969-10.501-6.206-16.601-6.328h-203.299c-5.989 0.117-11.76 2.26-16.373 6.079-4.613 3.821-7.797 9.091-9.027 14.952l-18.891 134.135c-30.656 12.809-59.468 29.648-85.672 50.075l-126.345-50.759c-5.648-2.15-11.873-2.24-17.58-0.254s-10.532 5.922-13.625 11.112l-101.65 175.469c-3.060 5.242-4.156 11.402-3.093 17.376 1.063 5.976 4.217 11.379 8.897 15.242l107.454 84.127c-2.289 16.582-3.498 33.294-3.619 50.031 0.091 16.497 1.301 32.969 3.619 49.302l-107.454 84.127c-4.68 3.865-7.833 9.267-8.897 15.242-1.063 5.976 0.033 12.134 3.093 17.376l101.65 175.492c3.090 5.195 7.913 9.134 13.621 11.124s11.934 1.904 17.585-0.244l126.345-50.758c26.308 20.258 55.1 37.070 85.672 50.029l18.891 134.135c1.058 6.008 4.168 11.463 8.801 15.432s10.5 6.206 16.599 6.328h203.299c5.989-0.117 11.76-2.26 16.373-6.079 4.615-3.82 7.797-9.091 9.029-14.952l18.891-134.135c30.695-12.799 59.544-29.64 85.781-50.074l126.234 50.759c5.648 2.15 11.873 2.24 17.581 0.254 5.706-1.986 10.531-5.92 13.624-11.112l101.65-175.492c3.060-5.242 4.156-11.4 3.093-17.376s-4.218-11.377-8.896-15.242l-107.455-84.127c2.288-16.573 3.497-33.278 3.619-50.008z" />
<glyph unicode="&#xe90f;" glyph-name="temperature" d="M545.519 783.381c0.002 10.422-2.341 20.899-7.095 30.881-4.769 10.008-11.949 19.474-21.38 27.667-9.438 8.196-20.907 14.918-33.858 19.571-12.956 4.655-26.985 7.088-41.238 7.071h-0.049c-28.981 0-55.931-10.045-75.095-26.691-19.003-16.508-28.5-37.733-28.524-58.571v-473.642c-0.004-11.284-5.212-21.931-14.119-28.857-26.036-20.241-43.592-46.229-51.357-74.047-7.736-27.726-5.65-56.834 6.191-83.763 11.891-27.043 33.357-51.207 62.476-68.618 29.146-17.425 64.177-26.982 100.404-26.953h0.049c36.24-0.007 71.273 9.567 100.428 26.999 29.133 17.42 50.612 41.589 62.525 68.645 11.844 26.914 13.934 56.001 6.19 83.712-7.773 27.811-25.349 53.784-51.405 74.001-8.921 6.924-14.139 17.588-14.143 28.882v473.714zM405.329 783.357c0 20.197 16.375 36.57 36.571 36.571 20.197 0 36.571-16.374 36.571-36.571v-517.356c13.488-4.481 26.117-11.496 36.952-20.907 20.419-17.737 33.102-42.979 33.143-70.595v-0.071c-0.020-27.631-12.69-52.914-33.119-70.666-20.268-17.613-46.792-26.812-73.548-26.812-26.751 0.002-53.258 9.204-73.523 26.812-20.429 17.752-33.122 43.032-33.143 70.666v0.071c0.042 27.621 12.742 52.858 33.167 70.595 10.835 9.409 23.444 16.425 36.929 20.907v517.356zM441.9 198.739c-10.401-0.002-19.526-3.63-25.547-8.858-5.86-5.088-7.969-10.818-7.976-15.501 0.031-4.667 2.155-10.345 7.976-15.404 6.020-5.23 15.143-8.88 25.547-8.882 10.408 0 19.551 3.65 25.571 8.882 5.82 5.057 7.921 10.74 7.953 15.404l-0.095 1.812c-0.488 4.301-2.753 9.236-7.88 13.69-6.022 5.227-15.148 8.858-25.549 8.858zM792.376 454.571c20.197 0 36.571-16.372 36.571-36.571-0.005-20.192-16.377-36.571-36.571-36.571h-70.095c-20.192 0.002-36.564 16.382-36.571 36.571 0 20.197 16.374 36.571 36.571 36.571h70.095zM792.376 637.238c20.197 0 36.571-16.374 36.571-36.571s-16.374-36.571-36.571-36.571h-70.095c-20.197 0.002-36.571 16.374-36.571 36.571 0.002 20.197 16.377 36.571 36.571 36.571h70.095zM792.376 819.929c20.197 0 36.571-16.374 36.571-36.571 0-20.196-16.374-36.571-36.571-36.571h-70.095c-20.195 0.001-36.569 16.376-36.571 36.571 0 20.197 16.374 36.57 36.571 36.571h70.095zM618.662 326.666c30.157-27.431 52.119-61.852 62.835-100.189 11.581-41.443 9.279-84.863-6.359-124.906l-3.308-7.975c-18.53-42.086-50.907-77.397-91.928-101.929-40.994-24.513-89.105-37.369-138.001-37.356-48.878-0.034-96.968 12.807-137.952 37.308-41.019 24.527-73.395 59.841-91.905 101.929-18.559 42.206-22.023 88.654-9.69 132.857 10.699 38.346 32.652 72.78 62.786 100.24v456.761c0.051 43.779 20.123 84.529 53.691 113.69 33.397 29.012 77.713 44.584 123.025 44.595h0.022l0.024 0.024v-0.024c22.543 0.022 44.973-3.794 66.024-11.357 21.060-7.567 40.499-18.773 57.095-33.19 16.608-14.428 30.108-31.845 39.429-51.405 9.331-19.582 14.221-40.803 14.214-62.381v-456.691z" />
<glyph unicode="&#xe910;" glyph-name="uv" d="M215.471 142.029v133.617c0.005 24.946 20.229 45.176 45.176 45.176 24.944-0.003 45.17-20.23 45.176-45.176v-133.617c0-22.13 0.093-34.271 1.205-42.677 8.406-1.111 20.546-1.205 42.677-1.205 22.127 0 34.271 0.096 42.677 1.205 1.111 8.406 1.235 20.543 1.235 42.677v133.617c0.006 24.946 20.23 45.176 45.176 45.176 24.94-0.006 45.173-20.233 45.176-45.176v-133.617c0-19.718 0.072-39.048-2.057-54.88-2.307-17.146-7.924-36.78-24.236-53.088-16.309-16.309-35.945-21.932-53.088-24.236-15.836-2.129-35.168-2.030-54.883-2.030-19.718 0-39.048-0.102-54.882 2.030-17.145 2.307-36.778 7.924-53.088 24.236-16.31 16.309-21.929 35.942-24.235 53.088-2.13 15.833-2.029 35.162-2.029 54.88zM708.587 292.412c9.267 23.16 35.545 34.437 58.708 25.175 23.163-9.264 34.443-35.569 25.175-58.735l-89.058-222.675c-6.864-17.152-23.501-28.383-41.972-28.383-18.465 0.006-35.081 11.237-41.942 28.383l-89.058 222.675c-9.267 23.166 2.012 49.471 25.175 58.735 23.163 9.258 49.441-2.015 58.708-25.175l47.116-117.793 47.146 117.793zM127.029 454.412c24.95 0 45.176-20.227 45.176-45.176-0.003-24.949-20.228-45.176-45.176-45.176h-66.794c-24.948 0-45.173 20.227-45.176 45.176 0 24.949 20.226 45.176 45.176 45.176h66.794zM683.089 409.236c0 47.074-18.715 92.241-52.001 125.53-33.286 33.28-78.432 51.968-125.5 51.968-47.074 0-92.241-18.682-125.53-51.968-33.286-33.289-51.968-78.456-51.968-125.53-0.003-24.946-20.23-45.176-45.178-45.176s-45.173 20.227-45.176 45.176c0 71.038 28.21 139.18 78.44 189.413 50.233 50.23 118.374 78.44 189.413 78.44 71.032-0.002 139.153-28.217 189.383-78.44 50.23-50.233 78.472-118.374 78.472-189.413-0.003-24.946-20.233-45.173-45.176-45.176-24.949 0-45.173 20.227-45.176 45.176zM950.941 454.412c24.946-0.006 45.176-20.23 45.176-45.176-0.003-24.943-20.233-45.17-45.176-45.176h-66.822c-24.943 0.006-45.173 20.233-45.176 45.176 0 24.946 20.23 45.17 45.176 45.176h66.822zM158.706 756.118c17.649 17.624 46.25 17.61 63.882-0.030l47.206-47.265c17.634-17.651 17.621-46.248-0.030-63.883s-46.248-17.621-63.882 0.030l-47.206 47.235c-17.634 17.651-17.621 46.278 0.030 63.912zM788.501 756.088c17.64 17.642 46.24 17.641 63.883 0 17.64-17.642 17.64-46.24 0-63.882l-47.206-47.206c-17.643-17.643-46.24-17.643-63.883 0s-17.643 46.24 0 63.882l47.206 47.206zM460.411 787.794v66.794c0 24.95 20.227 45.176 45.176 45.176 24.949-0.003 45.176-20.228 45.176-45.176v-66.794c0-24.949-20.227-45.173-45.176-45.176-24.949 0-45.176 20.226-45.176 45.176z" />
<glyph unicode="&#xe911;" glyph-name="wind" d="M288.845 708.432c4.145 128.833 91.825 231.029 198.593 231.029 52.127-0.996 101.841-26.716 138.41-71.61 36.571-44.895 57.069-105.363 57.069-168.357s-20.498-123.464-57.069-168.356c-36.569-44.895-86.282-70.615-138.41-71.613h-440.63c-8.23 0-16.122 3.953-21.942 10.983s-9.089 16.568-9.089 26.513c0 9.945 3.269 19.482 9.089 26.513s13.712 10.983 21.942 10.983h440.63c36.212 0.003 70.937 17.388 96.54 48.33s39.986 72.907 39.983 116.662c-0.006 43.755-14.392 85.716-40 116.652-25.606 30.937-60.337 48.314-96.546 48.31-35.34-0.046-69.296-16.618-94.746-46.243-25.454-29.625-40.428-70.004-41.788-112.675-0.404-9.859-4.011-19.128-10.035-25.795-6.027-6.667-13.985-10.193-22.148-9.814-8.166 0.379-15.875 4.633-21.46 11.839-5.583 7.206-8.615 16.782-8.393 26.65zM714.184 457.667c8.145 39.108 26.867 73.813 53.195 98.602 26.326 24.79 58.748 38.248 92.125 38.239 82.169 0 149.267-80.451 149.267-179.975 0-47.733-15.691-93.512-43.622-127.263-27.935-33.754-65.82-52.716-105.323-52.716h-84.6c14.275-26.305 22.54-57.71 22.54-91.186 0-89.36-59.875-163.779-134.597-163.779-24.997-0.009-49.503 8.397-70.77 24.275s-38.45 38.602-49.626 65.624l-2.384 5.819c-1.858 4.409-2.978 9.219-3.291 14.152-0.316 4.933 0.181 9.895 1.463 14.596 1.279 4.699 3.315 9.046 5.995 12.791 2.677 3.745 5.939 6.814 9.602 9.026s7.654 3.528 11.738 3.868c4.087 0.342 8.186-0.295 12.069-1.881 3.879-1.583 7.461-4.078 10.538-7.341 3.078-3.265 5.591-7.232 7.393-11.677l2.411-5.819c6.018-14.558 15.275-26.805 26.732-35.36 11.46-8.558 24.664-13.087 38.131-13.084 39.696 0 72.537 39.956 72.537 88.79 0 50.153-33.71 91.186-74.471 91.186h-614.426c-8.23 0-16.122 3.953-21.942 10.983s-9.089 16.568-9.089 26.513c0 9.945 3.269 19.482 9.089 26.513 5.819 7.033 13.712 10.983 21.942 10.983h812.994c23.043 0 45.144 11.059 61.437 30.749 16.293 19.687 25.448 46.393 25.448 74.237 0 57.862-39.123 104.983-87.207 104.983-19.538 0.006-38.514-7.867-53.93-22.367-15.416-14.503-26.384-34.804-31.168-57.692l-2.384-11.519c-1.995-9.649-7.080-17.946-14.137-23.063-7.060-5.12-15.509-6.641-23.496-4.231s-14.854 8.555-19.090 17.083c-4.236 8.528-5.494 18.739-3.499 28.388l2.408 11.551z" />
=======
<glyph unicode="&#xe900;" glyph-name="user-profile-outline" d="M512 384c-45.263 0-88.673 17.981-120.679 49.987s-49.987 75.416-49.987 120.679c0 45.263 17.981 88.673 49.987 120.679s75.416 49.987 120.679 49.987c45.263 0 88.673-17.981 120.679-49.987s49.987-75.416 49.987-120.679c0-45.263-17.981-88.673-49.987-120.679s-75.416-49.987-120.679-49.987zM512 426.667c16.809 0 33.453 3.311 48.983 9.743s29.64 15.861 41.527 27.747c11.886 11.886 21.314 25.997 27.747 41.527s9.743 32.174 9.743 48.983c0 16.809-3.311 33.453-9.743 48.983s-15.861 29.64-27.747 41.527c-11.886 11.886-25.997 21.314-41.527 27.747s-32.174 9.743-48.983 9.743c-33.947 0-66.505-13.485-90.51-37.49s-37.49-56.563-37.49-90.51c0-33.947 13.485-66.505 37.49-90.51s56.563-37.49 90.51-37.49zM938.667 448c0 235.648-191.019 426.667-426.667 426.667s-426.667-191.019-426.667-426.667c0-235.648 191.019-426.667 426.667-426.667s426.667 191.019 426.667 426.667zM717.44 123.52c-61.412-39.005-132.689-59.655-205.44-59.52-74.489-0.136-147.39 21.518-209.728 62.293-5.12 6.4-10.311 13.013-15.574 19.84-6.104 7.995-9.396 17.783-9.365 27.84 0 22.976 16.512 42.24 38.592 45.461 146.026 21.333 246.57 19.499 392.789-0.746 10.583-1.548 20.252-6.866 27.225-14.976s10.783-18.466 10.727-29.162c0-10.24-3.52-20.182-9.877-27.947-6.556-7.978-13.007-15.673-19.349-23.082zM789.014 182.058c-3.413 39.936-33.728 73.259-74.454 78.891-149.675 20.714-254.293 22.699-404.8 0.704-40.96-5.973-71.146-39.595-74.73-79.638-68.793 71.444-107.165 166.804-107.030 265.984 0 212.075 171.925 384 384 384s384-171.925 384-384c0.136-99.159-38.219-194.502-106.986-265.942z" />
<glyph unicode="&#xe905;" glyph-name="chevron-down" d="M249.173 550.828l241.492-241.492 241.495 241.492-30.292 29.868-211.203-211.2-211.198 211.2-30.293-29.868z" />
<glyph unicode="&#xe906;" glyph-name="use-profile-solid" horiz-adv-x="1056" d="M361.149 655.521c0 44.252 17.578 86.692 48.87 117.983 31.29 31.291 73.728 48.87 117.981 48.87s86.691-17.579 117.984-48.87c31.29-31.291 48.87-73.731 48.87-117.983 0-44.251-17.581-86.692-48.87-117.982-31.293-31.293-73.731-48.87-117.984-48.87s-86.691 17.578-117.981 48.87c-31.293 31.29-48.87 73.731-48.87 117.982zM361.149 405.242c-55.316 0-108.365-21.974-147.479-61.088s-61.087-92.163-61.087-147.478c0-33.187 13.184-65.018 36.652-88.486s55.298-36.653 88.487-36.653h500.557c33.19 0 65.021 13.184 88.49 36.653 23.466 23.469 36.653 55.299 36.653 88.486 0 55.315-21.974 108.365-61.088 147.478s-92.163 61.088-147.478 61.088h-333.706z" />
<glyph unicode="&#xe907;" glyph-name="icon-wind" horiz-adv-x="1098" d="M434.161 644.396c2.318 72.065 51.364 129.231 111.087 129.231 29.16-0.557 56.968-14.943 77.424-40.057 20.458-25.112 31.923-58.936 31.923-94.174s-11.465-69.062-31.923-94.174c-20.456-25.112-48.264-39.5-77.424-40.057h-246.477c-4.604 0-9.019 2.21-12.273 6.142-3.256 3.934-5.085 9.268-5.085 14.831s1.828 10.897 5.085 14.831c3.254 3.932 7.669 6.142 12.273 6.142h246.477c20.257 0.004 39.681 9.728 54.002 27.035 14.323 17.309 22.366 40.783 22.364 65.259s-8.049 47.947-22.373 65.251c-14.325 17.306-33.751 27.026-54.006 27.024-19.769-0.026-38.761-9.296-52.999-25.868-14.237-16.57-22.614-39.158-23.375-63.026-0.227-5.517-2.243-10.7-5.613-14.429-3.372-3.729-7.823-5.703-12.389-5.491s-8.881 2.592-12.005 6.622c-3.122 4.031-4.805 9.387-4.681 14.908zM672.085 504.123c4.556 21.878 15.029 41.29 29.756 55.156s32.863 21.396 51.533 21.39c45.963 0 83.497-45.002 83.497-100.674 0-26.7-8.778-52.308-24.403-71.188s-36.817-29.486-58.914-29.486h-47.324c7.983-14.716 12.608-32.284 12.608-51.008 0-49.984-33.492-91.614-75.29-91.614-13.984-0.006-27.693 4.697-39.588 13.58-11.895 8.881-21.508 21.593-27.76 36.708l-1.333 3.254c-1.041 2.467-1.666 5.157-1.843 7.916-0.175 2.761 0.102 5.535 0.819 8.164 0.717 2.631 1.856 5.062 3.353 7.157s3.323 3.811 5.373 5.047c2.048 1.238 4.28 1.974 6.565 2.165s4.58-0.168 6.751-1.052c2.169-0.886 4.174-2.283 5.895-4.107 1.722-1.826 3.128-4.046 4.137-6.531l1.346-3.256c3.368-8.144 8.546-14.993 14.956-19.78 6.408-4.787 13.794-7.321 21.329-7.317 22.204 0 40.575 22.349 40.575 49.666 0 28.054-18.856 51.008-41.658 51.008h-343.693c-4.604 0-9.019 2.21-12.273 6.142-3.256 3.934-5.085 9.268-5.085 14.831s1.828 10.897 5.085 14.831c3.254 3.932 7.669 6.142 12.273 6.142h454.768c12.891 0 25.252 6.187 34.367 17.201 9.114 11.013 14.235 25.95 14.235 41.526 0 32.366-21.886 58.725-48.783 58.725-10.927 0.004-21.543-4.399-30.165-12.511s-14.759-19.469-17.436-32.271l-1.333-6.444c-1.115-5.397-3.96-10.039-7.907-12.902-3.949-2.863-8.676-3.714-13.144-2.366s-8.307 4.787-10.678 9.557-3.074 10.482-1.959 15.879l1.348 6.461z" />
<glyph unicode="&#xe908;" glyph-name="icon-uv" horiz-adv-x="1007" d="M208.271 960h590.102c76.683 0 138.847-62.164 138.847-138.847v-607.458c0-76.683-62.164-138.847-138.847-138.847h-590.102c-76.683 0-138.847 62.164-138.847 138.847v607.458c0 76.683 62.164 138.847 138.847 138.847z" />
<glyph unicode="&#xe909;" glyph-name="rain" d="M504.501 868.119c-28.629 0-56.955-5.886-83.212-17.293s-49.894-28.089-69.433-49.014c-19.541-20.925-34.57-45.644-44.157-72.622s-13.523-55.638-11.567-84.202c-26.914-11.636-50.45-29.885-68.425-53.050s-29.809-50.495-34.399-79.453c-4.59-28.959-1.79-58.611 8.141-86.198s26.672-52.219 48.666-71.611c6.922-6.11 15.992-9.222 25.211-8.646 9.216 0.574 17.829 4.786 23.939 11.71 6.113 6.925 9.222 15.992 8.648 25.211s-4.786 17.831-11.711 23.942c-14.42 12.736-25.045 29.204-30.705 47.594-5.658 18.387-6.13 37.981-1.364 56.62 4.766 18.641 14.586 35.601 28.375 49.018 13.791 13.415 31.019 22.763 49.782 27.012 8.998 2.022 16.825 7.529 21.764 15.316 4.94 7.785 6.589 17.212 4.586 26.215-3.838 17.879-4.115 36.341-0.817 54.33 3.297 17.987 10.104 35.15 20.035 50.505 9.928 15.358 22.786 28.609 37.836 38.996 15.051 10.389 32 17.711 49.881 21.549 17.879 3.838 36.341 4.115 54.33 0.817 17.987-3.297 35.15-10.104 50.507-20.035 15.356-9.928 28.607-22.786 38.993-37.836 10.389-15.051 17.711-32 21.549-49.881 1.624-7.975 5.996-15.125 12.348-20.215 6.353-5.086 14.289-7.789 22.425-7.631h2.821c29.225 0 57.707-9.197 81.414-26.284s41.436-41.201 50.679-68.924c9.241-27.725 9.525-57.653 0.813-85.549-8.715-27.895-25.985-52.34-49.363-69.875-3.658-2.745-6.736-6.185-9.065-10.12s-3.859-8.291-4.503-12.818c-0.646-4.526-0.392-9.136 0.744-13.566 1.138-4.428 3.134-8.59 5.881-12.247 2.745-3.658 6.182-6.738 10.118-9.065 3.937-2.329 8.293-3.859 12.818-4.503 4.528-0.646 9.138-0.392 13.566 0.744 4.43 1.138 8.593 3.134 12.247 5.879 33.469 25.107 58.624 59.688 72.209 99.259 13.583 39.571 14.971 82.311 3.981 122.68s-33.852 76.506-65.622 103.732c-31.768 27.223-70.983 44.277-112.557 48.953-14.204 41.047-40.851 76.644-76.235 101.838-35.382 25.194-77.738 38.729-121.172 38.723zM572.346 404.594c1.446 4.339 2.022 8.918 1.693 13.479-0.325 4.561-1.545 9.013-3.591 13.103-2.048 4.088-4.877 7.734-8.335 10.728-3.455 2.996-7.466 5.281-11.802 6.725-4.339 1.446-8.919 2.022-13.479 1.693-4.561-0.325-9.013-1.545-13.103-3.591-8.258-4.134-14.536-11.378-17.453-20.138l-69.621-208.857c-1.446-4.339-2.020-8.919-1.693-13.479 0.325-4.561 1.547-9.013 3.593-13.103 4.133-8.256 11.375-14.536 20.138-17.453 8.76-2.919 18.321-2.235 26.579 1.897s14.536 11.375 17.455 20.138l69.619 208.857zM689.549 483.437c4.339-1.443 8.353-3.726 11.807-6.723 3.455-2.995 6.286-6.641 8.335-10.73 2.046-4.089 3.266-8.541 3.591-13.103 0.325-4.559-0.251-9.14-1.697-13.479l-69.621-208.857c-2.916-8.762-9.197-16.003-17.453-20.138-8.258-4.133-17.819-4.815-26.582-1.897-8.76 2.916-16.003 9.197-20.138 17.453-4.133 8.258-4.815 17.819-1.897 26.582l69.619 208.857c1.446 4.339 3.728 8.349 6.723 11.807 2.995 3.455 6.641 6.286 10.73 8.332s8.541 3.268 13.103 3.593c4.561 0.325 9.143-0.251 13.479-1.699zM450.548 439.404c2.916 8.762 2.233 18.322-1.9 26.582-4.133 8.256-11.375 14.536-20.138 17.453-8.762 2.919-18.322 2.235-26.579-1.897s-14.536-11.375-17.455-20.138l-69.619-208.857c-2.919-8.762-2.235-18.322 1.897-26.582 4.134-8.256 11.375-14.536 20.138-17.453 8.762-2.919 18.322-2.235 26.582 1.897 8.256 4.134 14.536 11.375 17.453 20.138l69.621 208.857z" />
<glyph unicode="&#xe90a;" glyph-name="icon-humidity" horiz-adv-x="1041" d="M208.271 960h624.814c76.683 0 138.847-62.164 138.847-138.847v-607.458c0-76.683-62.164-138.847-138.847-138.847h-624.814c-76.683 0-138.847 62.164-138.847 138.847v607.458c0 76.683 62.164 138.847 138.847 138.847z" />
<glyph unicode="&#xe90b;" glyph-name="famicons_settings-sharp" d="M523.443 592.982c-30.938 0-61.181-9.174-86.906-26.362s-45.773-41.619-57.613-70.202c-11.84-28.582-14.938-60.035-8.902-90.378 6.038-30.342 20.934-58.218 42.813-80.093 21.875-21.875 49.747-36.774 80.090-42.81 30.346-6.035 61.795-2.938 90.378 8.902 28.586 11.84 53.014 31.888 70.202 57.613 17.19 25.722 26.362 55.965 26.362 86.902-0.122 41.45-16.643 81.165-45.952 110.474s-69.024 45.827-110.47 45.952zM861.162 436.557c-0.080-14.614-1.152-29.21-3.206-43.68l95.206-74.538c4.144-3.424 6.938-8.208 7.882-13.504 0.941-5.293-0.029-10.752-2.739-15.395l-90.064-155.485c-2.736-4.605-7.011-8.093-12.067-9.856s-10.573-1.686-15.581 0.214l-111.939 44.973c-23.312-17.949-48.819-32.845-75.907-44.326l-16.736-118.842c-0.938-5.325-3.693-10.157-7.798-13.674s-9.302-5.498-14.707-5.606h-180.122c-5.306 0.102-10.422 2-14.509 5.386s-6.906 8.054-7.997 13.248l-16.739 118.842c-27.162 11.35-52.688 26.269-75.904 44.368l-111.941-44.973c-5.004-1.904-10.519-1.984-15.576-0.224s-9.331 5.245-12.072 9.843l-90.061 155.469c-2.711 4.643-3.682 10.099-2.74 15.392 0.942 5.296 3.736 10.083 7.883 13.507l95.204 74.534c-2.028 14.691-3.1 29.498-3.207 44.326 0.081 14.618 1.153 29.213 3.207 43.683l-95.204 74.534c-4.147 3.424-6.94 8.211-7.883 13.507-0.942 5.293 0.029 10.749 2.74 15.395l90.061 155.484c2.738 4.603 7.011 8.093 12.068 9.856s10.574 1.686 15.58-0.217l111.941-44.972c23.309 17.949 48.82 32.845 75.904 44.327l16.739 118.844c0.934 5.323 3.693 10.156 7.798 13.673 4.102 3.516 9.302 5.498 14.707 5.607h180.122c5.306-0.103 10.419-2.002 14.509-5.387 4.086-3.384 6.906-8.054 7.997-13.248l16.736-118.844c27.197-11.34 52.758-26.26 76.003-44.366l111.843 44.972c5.005 1.905 10.522 1.984 15.578 0.225s9.331-5.245 12.070-9.845l90.064-155.486c2.71-4.643 3.68-10.099 2.739-15.395-0.944-5.293-3.738-10.080-7.882-13.504l-95.206-74.538c2.029-14.682 3.101-29.482 3.206-44.307z" />
<glyph unicode="&#xe90c;" glyph-name="agenda" horiz-adv-x="1112" d="M224.884 960h675.139c78.005 0 141.241-63.236 141.241-141.241v-600.276c0-78.005-63.236-141.241-141.241-141.241h-675.139c-78.005 0-141.241 63.236-141.241 141.241v600.276c0 78.005 63.236 141.241 141.241 141.241z" />
>>>>>>> 5f137089f8a8f043cf4aaba78a1ce7af97aceb71
</font>
</defs>
</svg>
